<svg xmlns="http://www.w3.org/2000/svg" width="89" height="47" viewBox="0 0 89 47" fill="none">
  <path d="M43.2608 17.5467H78.9058L89 0H42.3144C29.4714 0 26.0015 2.66334 19.0167 14.1783C12.2122 25.85 0 47 0 47H15.2314C18.7013 41.125 25.1453 30.315 28.0744 25.4583C32.2203 18.6433 34.2481 17.5467 43.2608 17.5467ZM77.2385 20.445H44.5225C34.5185 20.445 32.8061 21.385 28.5251 28.8267C24.5144 35.7983 18.0253 47 18.0253 47H32.2203L35.6 41.125C37.8081 37.2867 38.9798 36.8167 43.6213 36.8167H67.8203L77.2385 20.445Z" fill="white"/>
</svg>