<svg width="457" height="96" viewBox="0 0 457 96" fill="none" xmlns="http://www.w3.org/2000/svg">
<rect width="135" height="28" rx="7" fill="#FF3A00"/>
<path d="M21.9482 19V8.09091H24.2546V17.0984H28.9315V19H21.9482ZM30.4589 19V8.09091H37.8097V9.99254H32.7654V12.592H37.4316V14.4936H32.7654V17.0984H37.8311V19H30.4589ZM41.5238 19H39.0522L42.8182 8.09091H45.7905L49.5511 19H47.0795L44.3469 10.5838H44.2617L41.5238 19ZM41.3693 14.712H47.2074V16.5124H41.3693V14.712ZM54.7314 19H50.8642V8.09091H54.7633C55.8606 8.09091 56.8052 8.3093 57.5971 8.74609C58.389 9.17933 58.998 9.80256 59.4242 10.6158C59.8539 11.429 60.0687 12.402 60.0687 13.5348C60.0687 14.6712 59.8539 15.6477 59.4242 16.4645C58.998 17.2812 58.3855 17.908 57.5865 18.3448C56.791 18.7816 55.8393 19 54.7314 19ZM53.1706 17.0238H54.6355C55.3173 17.0238 55.8908 16.9031 56.356 16.6616C56.8248 16.4165 57.1763 16.0384 57.4107 15.527C57.6486 15.0121 57.7676 14.348 57.7676 13.5348C57.7676 12.7287 57.6486 12.07 57.4107 11.5586C57.1763 11.0472 56.8265 10.6708 56.3613 10.4293C55.8961 10.1879 55.3226 10.0671 54.6408 10.0671H53.1706V17.0238ZM61.7773 19V8.09091H69.1281V9.99254H64.0837V12.592H68.7499V14.4936H64.0837V17.0984H69.1494V19H61.7773ZM70.9618 19V8.09091H75.2658C76.0897 8.09091 76.7928 8.23828 77.3752 8.53303C77.9611 8.82422 78.4068 9.23793 78.7122 9.77415C79.0211 10.3068 79.1756 10.9336 79.1756 11.6545C79.1756 12.3789 79.0194 13.0021 78.7069 13.5241C78.3944 14.0426 77.9416 14.4403 77.3485 14.7173C76.7591 14.9943 76.0453 15.1328 75.2072 15.1328H72.3255V13.2791H74.8343C75.2747 13.2791 75.6404 13.2187 75.9316 13.098C76.2228 12.9773 76.4395 12.7962 76.5815 12.5547C76.7271 12.3132 76.7999 12.0131 76.7999 11.6545C76.7999 11.2923 76.7271 10.9869 76.5815 10.7383C76.4395 10.4897 76.2211 10.3015 75.9263 10.1737C75.6351 10.0423 75.2676 9.97656 74.8237 9.97656H73.2683V19H70.9618ZM76.8532 14.0355L79.5645 19H77.0183L74.3656 14.0355H76.8532ZM86.7235 11.2283C86.6809 10.7987 86.498 10.4648 86.1749 10.2269C85.8517 9.98899 85.4132 9.87003 84.8592 9.87003C84.4828 9.87003 84.165 9.9233 83.9057 10.0298C83.6465 10.1328 83.4476 10.2766 83.3091 10.4613C83.1742 10.646 83.1067 10.8555 83.1067 11.0898C83.0996 11.2852 83.1404 11.4556 83.2292 11.6012C83.3216 11.7468 83.4476 11.8729 83.6074 11.9794C83.7672 12.0824 83.9519 12.1729 84.1614 12.2511C84.3709 12.3256 84.5946 12.3896 84.8326 12.4428L85.8127 12.6772C86.2885 12.7837 86.7253 12.9258 87.123 13.1033C87.5208 13.2809 87.8652 13.4993 88.1564 13.7585C88.4476 14.0178 88.6731 14.3232 88.8329 14.6747C88.9963 15.0263 89.0797 15.4293 89.0833 15.8839C89.0797 16.5515 88.9093 17.1303 88.5719 17.6204C88.2381 18.1069 87.7551 18.4851 87.123 18.755C86.4945 19.0213 85.7363 19.1545 84.8485 19.1545C83.9679 19.1545 83.2008 19.0195 82.5474 18.7496C81.8975 18.4798 81.3897 18.0803 81.024 17.5511C80.6618 17.0185 80.4718 16.3597 80.454 15.5749H82.6859C82.7108 15.9407 82.8155 16.2461 83.0002 16.4911C83.1884 16.7326 83.4387 16.9155 83.7512 17.0398C84.0673 17.1605 84.4242 17.2209 84.8219 17.2209C85.2125 17.2209 85.5517 17.1641 85.8393 17.0504C86.1305 16.9368 86.356 16.7788 86.5158 16.5763C86.6756 16.3739 86.7555 16.1413 86.7555 15.8786C86.7555 15.6335 86.6827 15.4276 86.5371 15.2607C86.3951 15.0937 86.1855 14.9517 85.9086 14.8345C85.6351 14.7173 85.2995 14.6108 84.9018 14.5149L83.714 14.2166C82.7942 13.9929 82.068 13.6431 81.5353 13.1673C81.0027 12.6914 80.7381 12.0504 80.7417 11.2443C80.7381 10.5838 80.9139 10.0067 81.269 9.51314C81.6277 9.01953 82.1195 8.63423 82.7445 8.35724C83.3695 8.08026 84.0797 7.94176 84.8752 7.94176C85.6848 7.94176 86.3915 8.08026 86.9952 8.35724C87.6025 8.63423 88.0748 9.01953 88.4121 9.51314C88.7495 10.0067 88.9235 10.5785 88.9341 11.2283H86.7235ZM90.6347 19V8.09091H92.9411V12.592H97.6233V8.09091H99.9244V19H97.6233V14.4936H92.9411V19H90.6347ZM104.133 8.09091V19H101.826V8.09091H104.133ZM106.03 19V8.09091H110.334C111.162 8.09091 111.866 8.24893 112.449 8.56499C113.031 8.87749 113.475 9.3125 113.781 9.87003C114.089 10.424 114.244 11.0632 114.244 11.7876C114.244 12.5121 114.088 13.1513 113.775 13.7053C113.463 14.2592 113.01 14.6907 112.417 14.9996C111.827 15.3086 111.114 15.4631 110.276 15.4631H107.532V13.6147H109.903C110.347 13.6147 110.712 13.5384 111 13.3857C111.291 13.2294 111.508 13.0146 111.65 12.7411C111.795 12.4641 111.868 12.1463 111.868 11.7876C111.868 11.4254 111.795 11.1094 111.65 10.8395C111.508 10.5661 111.291 10.3548 111 10.2056C110.709 10.0529 110.339 9.97656 109.892 9.97656H108.337V19H106.03Z" fill="white"/>
<rect x="144" width="153" height="28" rx="7" fill="#FF3A00"/>
<path d="M176.574 11.9102H174.24C174.198 11.6083 174.111 11.3402 173.979 11.1058C173.848 10.8679 173.679 10.6655 173.473 10.4986C173.267 10.3317 173.029 10.2038 172.76 10.1151C172.493 10.0263 172.204 9.98189 171.891 9.98189C171.327 9.98189 170.835 10.1222 170.416 10.4027C169.997 10.6797 169.672 11.0845 169.441 11.6172C169.21 12.1463 169.095 12.7891 169.095 13.5455C169.095 14.3232 169.21 14.9766 169.441 15.5057C169.675 16.0348 170.002 16.4343 170.421 16.7042C170.84 16.9741 171.325 17.109 171.875 17.109C172.184 17.109 172.47 17.0682 172.733 16.9865C172.999 16.9048 173.235 16.7859 173.441 16.6296C173.647 16.4698 173.818 16.2763 173.953 16.049C174.091 15.8217 174.187 15.5625 174.24 15.2713L176.574 15.282C176.513 15.7827 176.362 16.2656 176.121 16.7308C175.883 17.1925 175.561 17.6062 175.157 17.9719C174.755 18.3342 174.276 18.6218 173.718 18.8349C173.164 19.0444 172.538 19.1491 171.838 19.1491C170.865 19.1491 169.995 18.929 169.228 18.4886C168.464 18.0483 167.861 17.4109 167.417 16.5763C166.977 15.7418 166.756 14.7315 166.756 13.5455C166.756 12.3558 166.98 11.3438 167.428 10.5092C167.875 9.67472 168.482 9.03906 169.249 8.60227C170.016 8.16193 170.879 7.94176 171.838 7.94176C172.47 7.94176 173.056 8.03054 173.596 8.2081C174.139 8.38565 174.62 8.64489 175.039 8.98579C175.458 9.32315 175.799 9.73686 176.062 10.2269C176.328 10.717 176.499 11.2781 176.574 11.9102ZM188.252 13.5455C188.252 14.7351 188.027 15.7472 187.576 16.5817C187.128 17.4162 186.518 18.0536 185.743 18.494C184.973 18.9308 184.106 19.1491 183.144 19.1491C182.175 19.1491 181.305 18.929 180.534 18.4886C179.763 18.0483 179.154 17.4109 178.707 16.5763C178.259 15.7418 178.036 14.7315 178.036 13.5455C178.036 12.3558 178.259 11.3438 178.707 10.5092C179.154 9.67472 179.763 9.03906 180.534 8.60227C181.305 8.16193 182.175 7.94176 183.144 7.94176C184.106 7.94176 184.973 8.16193 185.743 8.60227C186.518 9.03906 187.128 9.67472 187.576 10.5092C188.027 11.3438 188.252 12.3558 188.252 13.5455ZM185.914 13.5455C185.914 12.7749 185.798 12.125 185.568 11.5959C185.34 11.0668 185.019 10.6655 184.604 10.392C184.188 10.1186 183.702 9.98189 183.144 9.98189C182.586 9.98189 182.1 10.1186 181.684 10.392C181.269 10.6655 180.946 11.0668 180.715 11.5959C180.488 12.125 180.374 12.7749 180.374 13.5455C180.374 14.3161 180.488 14.9659 180.715 15.495C180.946 16.0241 181.269 16.4254 181.684 16.6989C182.1 16.9723 182.586 17.109 183.144 17.109C183.702 17.109 184.188 16.9723 184.604 16.6989C185.019 16.4254 185.34 16.0241 185.568 15.495C185.798 14.9659 185.914 14.3161 185.914 13.5455ZM199.085 8.09091V19H197.093L192.347 12.1339H192.267V19H189.961V8.09091H191.985L196.694 14.9517H196.79V8.09091H199.085ZM206.909 11.2283C206.866 10.7987 206.684 10.4648 206.36 10.2269C206.037 9.98899 205.599 9.87003 205.045 9.87003C204.668 9.87003 204.35 9.9233 204.091 10.0298C203.832 10.1328 203.633 10.2766 203.495 10.4613C203.36 10.646 203.292 10.8555 203.292 11.0898C203.285 11.2852 203.326 11.4556 203.415 11.6012C203.507 11.7468 203.633 11.8729 203.793 11.9794C203.953 12.0824 204.137 12.1729 204.347 12.2511C204.556 12.3256 204.78 12.3896 205.018 12.4428L205.998 12.6772C206.474 12.7837 206.911 12.9258 207.309 13.1033C207.706 13.2809 208.051 13.4993 208.342 13.7585C208.633 14.0178 208.859 14.3232 209.018 14.6747C209.182 15.0263 209.265 15.4293 209.269 15.8839C209.265 16.5515 209.095 17.1303 208.757 17.6204C208.424 18.1069 207.941 18.4851 207.309 18.755C206.68 19.0213 205.922 19.1545 205.034 19.1545C204.153 19.1545 203.386 19.0195 202.733 18.7496C202.083 18.4798 201.575 18.0803 201.21 17.5511C200.847 17.0185 200.657 16.3597 200.64 15.5749H202.871C202.896 15.9407 203.001 16.2461 203.186 16.4911C203.374 16.7326 203.624 16.9155 203.937 17.0398C204.253 17.1605 204.61 17.2209 205.007 17.2209C205.398 17.2209 205.737 17.1641 206.025 17.0504C206.316 16.9368 206.542 16.7788 206.701 16.5763C206.861 16.3739 206.941 16.1413 206.941 15.8786C206.941 15.6335 206.868 15.4276 206.723 15.2607C206.581 15.0937 206.371 14.9517 206.094 14.8345C205.821 14.7173 205.485 14.6108 205.087 14.5149L203.9 14.2166C202.98 13.9929 202.254 13.6431 201.721 13.1673C201.188 12.6914 200.924 12.0504 200.927 11.2443C200.924 10.5838 201.099 10.0067 201.455 9.51314C201.813 9.01953 202.305 8.63423 202.93 8.35724C203.555 8.08026 204.265 7.94176 205.061 7.94176C205.87 7.94176 206.577 8.08026 207.181 8.35724C207.788 8.63423 208.26 9.01953 208.598 9.51314C208.935 10.0067 209.109 10.5785 209.12 11.2283H206.909ZM213.127 8.09091V19H210.82V8.09091H213.127ZM220.942 11.2283C220.9 10.7987 220.717 10.4648 220.394 10.2269C220.07 9.98899 219.632 9.87003 219.078 9.87003C218.702 9.87003 218.384 9.9233 218.124 10.0298C217.865 10.1328 217.666 10.2766 217.528 10.4613C217.393 10.646 217.325 10.8555 217.325 11.0898C217.318 11.2852 217.359 11.4556 217.448 11.6012C217.54 11.7468 217.666 11.8729 217.826 11.9794C217.986 12.0824 218.171 12.1729 218.38 12.2511C218.59 12.3256 218.813 12.3896 219.051 12.4428L220.031 12.6772C220.507 12.7837 220.944 12.9258 221.342 13.1033C221.74 13.2809 222.084 13.4993 222.375 13.7585C222.666 14.0178 222.892 14.3232 223.052 14.6747C223.215 15.0263 223.298 15.4293 223.302 15.8839C223.298 16.5515 223.128 17.1303 222.791 17.6204C222.457 18.1069 221.974 18.4851 221.342 18.755C220.713 19.0213 219.955 19.1545 219.067 19.1545C218.187 19.1545 217.42 19.0195 216.766 18.7496C216.116 18.4798 215.608 18.0803 215.243 17.5511C214.881 17.0185 214.691 16.3597 214.673 15.5749H216.905C216.93 15.9407 217.034 16.2461 217.219 16.4911C217.407 16.7326 217.657 16.9155 217.97 17.0398C218.286 17.1605 218.643 17.2209 219.041 17.2209C219.431 17.2209 219.77 17.1641 220.058 17.0504C220.349 16.9368 220.575 16.7788 220.735 16.5763C220.894 16.3739 220.974 16.1413 220.974 15.8786C220.974 15.6335 220.901 15.4276 220.756 15.2607C220.614 15.0937 220.404 14.9517 220.127 14.8345C219.854 14.7173 219.518 14.6108 219.121 14.5149L217.933 14.2166C217.013 13.9929 216.287 13.6431 215.754 13.1673C215.221 12.6914 214.957 12.0504 214.96 11.2443C214.957 10.5838 215.133 10.0067 215.488 9.51314C215.846 9.01953 216.338 8.63423 216.963 8.35724C217.588 8.08026 218.298 7.94176 219.094 7.94176C219.904 7.94176 220.61 8.08026 221.214 8.35724C221.821 8.63423 222.294 9.01953 222.631 9.51314C222.968 10.0067 223.142 10.5785 223.153 11.2283H220.942ZM224.438 9.99254V8.09091H233.397V9.99254H230.058V19H227.778V9.99254H224.438ZM234.873 19V8.09091H242.224V9.99254H237.179V12.592H241.846V14.4936H237.179V17.0984H242.245V19H234.873ZM253.182 8.09091V19H251.19L246.444 12.1339H246.364V19H244.058V8.09091H246.082L250.79 14.9517H250.886V8.09091H253.182ZM264.713 11.9102H262.38C262.337 11.6083 262.25 11.3402 262.119 11.1058C261.988 10.8679 261.819 10.6655 261.613 10.4986C261.407 10.3317 261.169 10.2038 260.899 10.1151C260.633 10.0263 260.343 9.98189 260.031 9.98189C259.466 9.98189 258.975 10.1222 258.555 10.4027C258.136 10.6797 257.812 11.0845 257.581 11.6172C257.35 12.1463 257.234 12.7891 257.234 13.5455C257.234 14.3232 257.35 14.9766 257.581 15.5057C257.815 16.0348 258.142 16.4343 258.561 16.7042C258.98 16.9741 259.465 17.109 260.015 17.109C260.324 17.109 260.61 17.0682 260.873 16.9865C261.139 16.9048 261.375 16.7859 261.581 16.6296C261.787 16.4698 261.957 16.2763 262.092 16.049C262.231 15.8217 262.327 15.5625 262.38 15.2713L264.713 15.282C264.653 15.7827 264.502 16.2656 264.26 16.7308C264.022 17.1925 263.701 17.6062 263.296 17.9719C262.895 18.3342 262.416 18.6218 261.858 18.8349C261.304 19.0444 260.677 19.1491 259.978 19.1491C259.005 19.1491 258.135 18.929 257.368 18.4886C256.604 18.0483 256 17.4109 255.557 16.5763C255.116 15.7418 254.896 14.7315 254.896 13.5455C254.896 12.3558 255.12 11.3438 255.567 10.5092C256.015 9.67472 256.622 9.03906 257.389 8.60227C258.156 8.16193 259.019 7.94176 259.978 7.94176C260.61 7.94176 261.196 8.03054 261.736 8.2081C262.279 8.38565 262.76 8.64489 263.179 8.98579C263.598 9.32315 263.939 9.73686 264.202 10.2269C264.468 10.717 264.639 11.2781 264.713 11.9102ZM265.728 8.09091H268.311L270.799 12.7891H270.905L273.393 8.09091H275.976L271.997 15.1435V19H269.707V15.1435L265.728 8.09091Z" fill="white"/>
<rect x="304" width="153" height="28" rx="7" fill="#FF3A00"/>
<path d="M330.948 19V8.09091H335.252C336.08 8.09091 336.784 8.24893 337.367 8.56499C337.949 8.87749 338.393 9.3125 338.699 9.87003C339.007 10.424 339.162 11.0632 339.162 11.7876C339.162 12.5121 339.006 13.1513 338.693 13.7053C338.381 14.2592 337.928 14.6907 337.335 14.9996C336.745 15.3086 336.032 15.4631 335.194 15.4631H332.45V13.6147H334.821C335.265 13.6147 335.63 13.5384 335.918 13.3857C336.209 13.2294 336.426 13.0146 336.568 12.7411C336.713 12.4641 336.786 12.1463 336.786 11.7876C336.786 11.4254 336.713 11.1094 336.568 10.8395C336.426 10.5661 336.209 10.3548 335.918 10.2056C335.627 10.0529 335.257 9.97656 334.81 9.97656H333.255V19H330.948ZM340.66 19V8.09091H348.011V9.99254H342.967V12.592H347.633V14.4936H342.967V17.0984H348.032V19H340.66ZM349.845 19V8.09091H354.149C354.972 8.09091 355.676 8.23828 356.258 8.53303C356.844 8.82422 357.29 9.23793 357.595 9.77415C357.904 10.3068 358.058 10.9336 358.058 11.6545C358.058 12.3789 357.902 13.0021 357.59 13.5241C357.277 14.0426 356.824 14.4403 356.231 14.7173C355.642 14.9943 354.928 15.1328 354.09 15.1328H351.208V13.2791H353.717C354.157 13.2791 354.523 13.2187 354.814 13.098C355.106 12.9773 355.322 12.7962 355.464 12.5547C355.61 12.3132 355.683 12.0131 355.683 11.6545C355.683 11.2923 355.61 10.9869 355.464 10.7383C355.322 10.4897 355.104 10.3015 354.809 10.1737C354.518 10.0423 354.15 9.97656 353.706 9.97656H352.151V19H349.845ZM355.736 14.0355L358.447 19H355.901L353.248 14.0355H355.736ZM365.606 11.2283C365.564 10.7987 365.381 10.4648 365.058 10.2269C364.735 9.98899 364.296 9.87003 363.742 9.87003C363.366 9.87003 363.048 9.9233 362.789 10.0298C362.529 10.1328 362.33 10.2766 362.192 10.4613C362.057 10.646 361.99 10.8555 361.99 11.0898C361.982 11.2852 362.023 11.4556 362.112 11.6012C362.204 11.7468 362.33 11.8729 362.49 11.9794C362.65 12.0824 362.835 12.1729 363.044 12.2511C363.254 12.3256 363.477 12.3896 363.715 12.4428L364.695 12.6772C365.171 12.7837 365.608 12.9258 366.006 13.1033C366.404 13.2809 366.748 13.4993 367.039 13.7585C367.33 14.0178 367.556 14.3232 367.716 14.6747C367.879 15.0263 367.963 15.4293 367.966 15.8839C367.963 16.5515 367.792 17.1303 367.455 17.6204C367.121 18.1069 366.638 18.4851 366.006 18.755C365.377 19.0213 364.619 19.1545 363.731 19.1545C362.851 19.1545 362.084 19.0195 361.43 18.7496C360.78 18.4798 360.273 18.0803 359.907 17.5511C359.545 17.0185 359.355 16.3597 359.337 15.5749H361.569C361.594 15.9407 361.698 16.2461 361.883 16.4911C362.071 16.7326 362.322 16.9155 362.634 17.0398C362.95 17.1605 363.307 17.2209 363.705 17.2209C364.095 17.2209 364.434 17.1641 364.722 17.0504C365.013 16.9368 365.239 16.7788 365.399 16.5763C365.558 16.3739 365.638 16.1413 365.638 15.8786C365.638 15.6335 365.566 15.4276 365.42 15.2607C365.278 15.0937 365.068 14.9517 364.791 14.8345C364.518 14.7173 364.182 14.6108 363.785 14.5149L362.597 14.2166C361.677 13.9929 360.951 13.6431 360.418 13.1673C359.885 12.6914 359.621 12.0504 359.624 11.2443C359.621 10.5838 359.797 10.0067 360.152 9.51314C360.51 9.01953 361.002 8.63423 361.627 8.35724C362.252 8.08026 362.963 7.94176 363.758 7.94176C364.568 7.94176 365.274 8.08026 365.878 8.35724C366.485 8.63423 366.958 9.01953 367.295 9.51314C367.632 10.0067 367.806 10.5785 367.817 11.2283H365.606ZM371.824 8.09091V19H369.517V8.09091H371.824ZM379.64 11.2283C379.597 10.7987 379.414 10.4648 379.091 10.2269C378.768 9.98899 378.329 9.87003 377.775 9.87003C377.399 9.87003 377.081 9.9233 376.822 10.0298C376.563 10.1328 376.364 10.2766 376.225 10.4613C376.09 10.646 376.023 10.8555 376.023 11.0898C376.016 11.2852 376.056 11.4556 376.145 11.6012C376.238 11.7468 376.364 11.8729 376.523 11.9794C376.683 12.0824 376.868 12.1729 377.077 12.2511C377.287 12.3256 377.511 12.3896 377.749 12.4428L378.729 12.6772C379.205 12.7837 379.641 12.9258 380.039 13.1033C380.437 13.2809 380.781 13.4993 381.072 13.7585C381.364 14.0178 381.589 14.3232 381.749 14.6747C381.912 15.0263 381.996 15.4293 381.999 15.8839C381.996 16.5515 381.825 17.1303 381.488 17.6204C381.154 18.1069 380.671 18.4851 380.039 18.755C379.411 19.0213 378.652 19.1545 377.765 19.1545C376.884 19.1545 376.117 19.0195 375.463 18.7496C374.814 18.4798 374.306 18.0803 373.94 17.5511C373.578 17.0185 373.388 16.3597 373.37 15.5749H375.602C375.627 15.9407 375.732 16.2461 375.916 16.4911C376.104 16.7326 376.355 16.9155 376.667 17.0398C376.983 17.1605 377.34 17.2209 377.738 17.2209C378.129 17.2209 378.468 17.1641 378.755 17.0504C379.047 16.9368 379.272 16.7788 379.432 16.5763C379.592 16.3739 379.672 16.1413 379.672 15.8786C379.672 15.6335 379.599 15.4276 379.453 15.2607C379.311 15.0937 379.102 14.9517 378.825 14.8345C378.551 14.7173 378.216 14.6108 377.818 14.5149L376.63 14.2166C375.71 13.9929 374.984 13.6431 374.451 13.1673C373.919 12.6914 373.654 12.0504 373.658 11.2443C373.654 10.5838 373.83 10.0067 374.185 9.51314C374.544 9.01953 375.036 8.63423 375.661 8.35724C376.286 8.08026 376.996 7.94176 377.791 7.94176C378.601 7.94176 379.308 8.08026 379.911 8.35724C380.518 8.63423 380.991 9.01953 381.328 9.51314C381.665 10.0067 381.839 10.5785 381.85 11.2283H379.64ZM383.135 9.99254V8.09091H392.095V9.99254H388.755V19H386.475V9.99254H383.135ZM393.57 19V8.09091H400.921V9.99254H395.877V12.592H400.543V14.4936H395.877V17.0984H400.942V19H393.57ZM411.879 8.09091V19H409.887L405.141 12.1339H405.061V19H402.755V8.09091H404.779L409.488 14.9517H409.584V8.09091H411.879ZM423.41 11.9102H421.077C421.035 11.6083 420.948 11.3402 420.816 11.1058C420.685 10.8679 420.516 10.6655 420.31 10.4986C420.104 10.3317 419.866 10.2038 419.597 10.1151C419.33 10.0263 419.041 9.98189 418.728 9.98189C418.164 9.98189 417.672 10.1222 417.253 10.4027C416.834 10.6797 416.509 11.0845 416.278 11.6172C416.047 12.1463 415.932 12.7891 415.932 13.5455C415.932 14.3232 416.047 14.9766 416.278 15.5057C416.512 16.0348 416.839 16.4343 417.258 16.7042C417.677 16.9741 418.162 17.109 418.712 17.109C419.021 17.109 419.307 17.0682 419.57 16.9865C419.836 16.9048 420.072 16.7859 420.278 16.6296C420.484 16.4698 420.655 16.2763 420.79 16.049C420.928 15.8217 421.024 15.5625 421.077 15.2713L423.41 15.282C423.35 15.7827 423.199 16.2656 422.958 16.7308C422.72 17.1925 422.398 17.6062 421.994 17.9719C421.592 18.3342 421.113 18.6218 420.555 18.8349C420.001 19.0444 419.375 19.1491 418.675 19.1491C417.702 19.1491 416.832 18.929 416.065 18.4886C415.301 18.0483 414.698 17.4109 414.254 16.5763C413.813 15.7418 413.593 14.7315 413.593 13.5455C413.593 12.3558 413.817 11.3438 414.264 10.5092C414.712 9.67472 415.319 9.03906 416.086 8.60227C416.853 8.16193 417.716 7.94176 418.675 7.94176C419.307 7.94176 419.893 8.03054 420.433 8.2081C420.976 8.38565 421.457 8.64489 421.876 8.98579C422.295 9.32315 422.636 9.73686 422.899 10.2269C423.165 10.717 423.336 11.2781 423.41 11.9102ZM425.064 19V8.09091H432.415V9.99254H427.371V12.592H432.037V14.4936H427.371V17.0984H432.437V19H425.064Z" fill="white"/>
<rect x="1" y="68" width="139" height="28" rx="7" fill="#FF3A00"/>
<path d="M20.9482 87V76.0909H28.299V77.9925H23.2546V80.592H27.9208V82.4936H23.2546V85.0984H28.3203V87H20.9482ZM39.2574 76.0909V87H37.2652L32.5191 80.1339H32.4392V87H30.1327V76.0909H32.1569L36.8657 82.9517H36.9616V76.0909H39.2574ZM48.3967 79.6172C48.3221 79.358 48.2173 79.1289 48.0824 78.93C47.9474 78.7276 47.7823 78.5572 47.587 78.4187C47.3952 78.2766 47.1751 78.1683 46.9265 78.0938C46.6815 78.0192 46.4098 77.9819 46.1115 77.9819C45.554 77.9819 45.0639 78.1204 44.6413 78.3974C44.2223 78.6744 43.8956 79.0774 43.6612 79.6065C43.4268 80.1321 43.3097 80.7749 43.3097 81.5348C43.3097 82.2947 43.4251 82.9411 43.6559 83.4737C43.8867 84.0064 44.2134 84.413 44.636 84.6935C45.0586 84.9705 45.5575 85.109 46.1328 85.109C46.6548 85.109 47.1005 85.0167 47.4698 84.832C47.8427 84.6438 48.1268 84.3793 48.3221 84.0384C48.521 83.6974 48.6204 83.2944 48.6204 82.8292L49.0891 82.8984H46.2766V81.1619H50.8416V82.5362C50.8416 83.495 50.6392 84.3189 50.2344 85.0078C49.8295 85.6932 49.272 86.2223 48.5618 86.5952C47.8516 86.9645 47.0384 87.1491 46.1222 87.1491C45.0994 87.1491 44.201 86.9237 43.4268 86.4727C42.6527 86.0181 42.049 85.3736 41.6158 84.5391C41.1861 83.701 40.9712 82.7067 40.9712 81.5561C40.9712 80.6719 41.0991 79.8835 41.3548 79.1911C41.614 78.495 41.9762 77.9055 42.4414 77.4226C42.9066 76.9396 43.4482 76.5721 44.0661 76.32C44.6839 76.0678 45.3533 75.9418 46.0742 75.9418C46.6921 75.9418 47.2674 76.0323 47.8001 76.2134C48.3327 76.391 48.805 76.6431 49.217 76.9698C49.6325 77.2965 49.9716 77.6854 50.2344 78.1364C50.4972 78.5838 50.6658 79.0774 50.7404 79.6172H48.3967ZM54.8806 76.0909V87H52.5741V76.0909H54.8806ZM65.9029 76.0909V87H63.9107L59.1646 80.1339H59.0847V87H56.7782V76.0909H58.8024L63.5112 82.9517H63.6071V76.0909H65.9029ZM67.8085 87V76.0909H75.1594V77.9925H70.115V80.592H74.7812V82.4936H70.115V85.0984H75.1807V87H67.8085ZM76.9931 87V76.0909H84.3439V77.9925H79.2995V80.592H83.9657V82.4936H79.2995V85.0984H84.3652V87H76.9931ZM86.1776 87V76.0909H90.4816C91.3055 76.0909 92.0086 76.2383 92.591 76.533C93.1769 76.8242 93.6226 77.2379 93.928 77.7741C94.2369 78.3068 94.3914 78.9336 94.3914 79.6545C94.3914 80.3789 94.2352 81.0021 93.9227 81.5241C93.6102 82.0426 93.1574 82.4403 92.5644 82.7173C91.9749 82.9943 91.2611 83.1328 90.423 83.1328H87.5413V81.2791H90.0502C90.4905 81.2791 90.8563 81.2187 91.1475 81.098C91.4387 80.9773 91.6553 80.7962 91.7973 80.5547C91.9429 80.3132 92.0157 80.0131 92.0157 79.6545C92.0157 79.2923 91.9429 78.9869 91.7973 78.7383C91.6553 78.4897 91.4369 78.3015 91.1421 78.1737C90.8509 78.0423 90.4834 77.9766 90.0395 77.9766H88.4841V87H86.1776ZM92.069 82.0355L94.7803 87H92.2341L89.5814 82.0355H92.069ZM98.3279 76.0909V87H96.0214V76.0909H98.3279ZM109.35 76.0909V87H107.358L102.612 80.1339H102.532V87H100.225V76.0909H102.25L106.958 82.9517H107.054V76.0909H109.35ZM118.489 79.6172C118.415 79.358 118.31 79.1289 118.175 78.93C118.04 78.7276 117.875 78.5572 117.68 78.4187C117.488 78.2766 117.268 78.1683 117.019 78.0938C116.774 78.0192 116.503 77.9819 116.204 77.9819C115.647 77.9819 115.157 78.1204 114.734 78.3974C114.315 78.6744 113.988 79.0774 113.754 79.6065C113.52 80.1321 113.402 80.7749 113.402 81.5348C113.402 82.2947 113.518 82.9411 113.749 83.4737C113.979 84.0064 114.306 84.413 114.729 84.6935C115.151 84.9705 115.65 85.109 116.226 85.109C116.748 85.109 117.193 85.0167 117.563 84.832C117.935 84.6438 118.22 84.3793 118.415 84.0384C118.614 83.6974 118.713 83.2944 118.713 82.8292L119.182 82.8984H116.369V81.1619H120.934V82.5362C120.934 83.495 120.732 84.3189 120.327 85.0078C119.922 85.6932 119.365 86.2223 118.655 86.5952C117.944 86.9645 117.131 87.1491 116.215 87.1491C115.192 87.1491 114.294 86.9237 113.52 86.4727C112.745 86.0181 112.142 85.3736 111.709 84.5391C111.279 83.701 111.064 82.7067 111.064 81.5561C111.064 80.6719 111.192 79.8835 111.448 79.1911C111.707 78.495 112.069 77.9055 112.534 77.4226C112.999 76.9396 113.541 76.5721 114.159 76.32C114.777 76.0678 115.446 75.9418 116.167 75.9418C116.785 75.9418 117.36 76.0323 117.893 76.2134C118.426 76.391 118.898 76.6431 119.31 76.9698C119.725 77.2965 120.064 77.6854 120.327 78.1364C120.59 78.5838 120.759 79.0774 120.833 79.6172H118.489Z" fill="white"/>
<rect x="149" y="68" width="255" height="28" rx="7" fill="#FF3A00"/>
<path d="M161.533 77.9925V76.0909H170.492V77.9925H167.152V87H164.873V77.9925H161.533ZM171.968 87V76.0909H179.319V77.9925H174.274V80.592H178.94V82.4936H174.274V85.0984H179.34V87H171.968ZM183.033 87H180.561L184.327 76.0909H187.299L191.06 87H188.588L185.856 78.5838H185.771L183.033 87ZM182.878 82.712H188.716V84.5124H182.878V82.712ZM192.373 76.0909H195.217L198.222 83.4205H198.35L201.354 76.0909H204.198V87H201.961V79.8995H201.87L199.047 86.9467H197.524L194.701 79.8729H194.61V87H192.373V76.0909ZM212.026 87L208.904 76.0909H211.424L213.23 83.6708H213.32L215.312 76.0909H217.47L219.457 83.6868H219.552L221.358 76.0909H223.878L220.756 87H218.508L216.431 79.8675H216.346L214.274 87H212.026ZM234.522 81.5455C234.522 82.7351 234.296 83.7472 233.845 84.5817C233.398 85.4162 232.787 86.0536 232.013 86.494C231.242 86.9308 230.376 87.1491 229.414 87.1491C228.444 87.1491 227.574 86.929 226.803 86.4886C226.033 86.0483 225.424 85.4109 224.976 84.5763C224.529 83.7418 224.305 82.7315 224.305 81.5455C224.305 80.3558 224.529 79.3438 224.976 78.5092C225.424 77.6747 226.033 77.0391 226.803 76.6023C227.574 76.1619 228.444 75.9418 229.414 75.9418C230.376 75.9418 231.242 76.1619 232.013 76.6023C232.787 77.0391 233.398 77.6747 233.845 78.5092C234.296 79.3438 234.522 80.3558 234.522 81.5455ZM232.183 81.5455C232.183 80.7749 232.068 80.125 231.837 79.5959C231.61 79.0668 231.289 78.6655 230.873 78.392C230.458 78.1186 229.971 77.9819 229.414 77.9819C228.856 77.9819 228.369 78.1186 227.954 78.392C227.539 78.6655 227.215 79.0668 226.985 79.5959C226.757 80.125 226.644 80.7749 226.644 81.5455C226.644 82.3161 226.757 82.9659 226.985 83.495C227.215 84.0241 227.539 84.4254 227.954 84.6989C228.369 84.9723 228.856 85.109 229.414 85.109C229.971 85.109 230.458 84.9723 230.873 84.6989C231.289 84.4254 231.61 84.0241 231.837 83.495C232.068 82.9659 232.183 82.3161 232.183 81.5455ZM236.23 87V76.0909H240.534C241.358 76.0909 242.061 76.2383 242.644 76.533C243.23 76.8242 243.675 77.2379 243.981 77.7741C244.29 78.3068 244.444 78.9336 244.444 79.6545C244.444 80.3789 244.288 81.0021 243.975 81.5241C243.663 82.0426 243.21 82.4403 242.617 82.7173C242.028 82.9943 241.314 83.1328 240.476 83.1328H237.594V81.2791H240.103C240.543 81.2791 240.909 81.2187 241.2 81.098C241.491 80.9773 241.708 80.7962 241.85 80.5547C241.996 80.3132 242.068 80.0131 242.068 79.6545C242.068 79.2923 241.996 78.9869 241.85 78.7383C241.708 78.4897 241.49 78.3015 241.195 78.1737C240.904 78.0423 240.536 77.9766 240.092 77.9766H238.537V87H236.23ZM242.122 82.0355L244.833 87H242.287L239.634 82.0355H242.122ZM246.074 87V76.0909H248.381V80.9009H248.524L252.45 76.0909H255.215L251.166 80.9755L255.263 87H252.503L249.515 82.5149L248.381 83.8999V87H246.074ZM263.19 87.1598C262.437 87.1598 261.787 87.0249 261.241 86.755C260.694 86.4851 260.273 86.1193 259.978 85.6577C259.687 85.1925 259.541 84.674 259.541 84.1023C259.541 83.6761 259.627 83.2979 259.797 82.9677C259.968 82.6374 260.205 82.3338 260.511 82.0568C260.816 81.7763 261.171 81.4975 261.576 81.2205L263.691 79.8303C263.964 79.6562 264.165 79.4734 264.293 79.2816C264.421 79.0863 264.485 78.875 264.485 78.6477C264.485 78.4311 264.398 78.2305 264.224 78.0458C264.05 77.8612 263.803 77.7706 263.483 77.7741C263.27 77.7741 263.085 77.8221 262.929 77.918C262.773 78.0103 262.65 78.1328 262.562 78.2855C262.476 78.4347 262.434 78.6016 262.434 78.7862C262.434 79.0135 262.498 79.2443 262.626 79.4787C262.753 79.7131 262.924 79.9616 263.137 80.2244C263.35 80.4837 263.583 80.7642 263.835 81.0661L269.007 87H266.642L262.327 82.1953C262.043 81.8722 261.759 81.5348 261.475 81.1832C261.194 80.8281 260.96 80.4517 260.772 80.054C260.584 79.6527 260.49 79.2177 260.49 78.7489C260.49 78.2198 260.612 77.744 260.857 77.3214C261.106 76.8988 261.454 76.565 261.901 76.32C262.349 76.0714 262.871 75.9471 263.467 75.9471C264.05 75.9471 264.552 76.0661 264.975 76.304C265.401 76.5384 265.727 76.8509 265.955 77.2415C266.186 77.6286 266.301 78.0547 266.301 78.5199C266.301 79.0348 266.173 79.5018 265.917 79.9208C265.665 80.3363 265.31 80.7092 264.852 81.0394L262.626 82.6428C262.324 82.8629 262.1 83.0884 261.954 83.3192C261.812 83.5465 261.741 83.7649 261.741 83.9744C261.741 84.2337 261.805 84.4663 261.933 84.6722C262.061 84.8782 262.242 85.0415 262.476 85.1623C262.711 85.2795 262.986 85.3381 263.302 85.3381C263.686 85.3381 264.064 85.2511 264.437 85.0771C264.813 84.8995 265.154 84.6491 265.459 84.326C265.768 83.9993 266.015 83.6122 266.2 83.1648C266.384 82.7173 266.477 82.2219 266.477 81.6786H268.357C268.357 82.3462 268.284 82.9482 268.139 83.4844C267.993 84.017 267.791 84.4822 267.531 84.88C267.272 85.2741 266.976 85.5973 266.642 85.8494C266.535 85.9169 266.432 85.9808 266.333 86.0412C266.233 86.1016 266.131 86.1655 266.024 86.233C265.619 86.5597 265.166 86.7958 264.666 86.9414C264.169 87.087 263.677 87.1598 263.19 87.1598ZM283.092 79.9102H280.759C280.716 79.6083 280.629 79.3402 280.498 79.1058C280.367 78.8679 280.198 78.6655 279.992 78.4986C279.786 78.3317 279.548 78.2038 279.278 78.1151C279.012 78.0263 278.722 77.9819 278.41 77.9819C277.845 77.9819 277.353 78.1222 276.934 78.4027C276.515 78.6797 276.19 79.0845 275.96 79.6172C275.729 80.1463 275.613 80.7891 275.613 81.5455C275.613 82.3232 275.729 82.9766 275.96 83.5057C276.194 84.0348 276.521 84.4343 276.94 84.7042C277.359 84.9741 277.843 85.109 278.394 85.109C278.703 85.109 278.989 85.0682 279.252 84.9865C279.518 84.9048 279.754 84.7859 279.96 84.6296C280.166 84.4698 280.336 84.2763 280.471 84.049C280.61 83.8217 280.706 83.5625 280.759 83.2713L283.092 83.282C283.032 83.7827 282.881 84.2656 282.639 84.7308C282.401 85.1925 282.08 85.6062 281.675 85.9719C281.274 86.3342 280.794 86.6218 280.237 86.8349C279.683 87.0444 279.056 87.1491 278.357 87.1491C277.384 87.1491 276.514 86.929 275.747 86.4886C274.983 86.0483 274.379 85.4109 273.935 84.5763C273.495 83.7418 273.275 82.7315 273.275 81.5455C273.275 80.3558 273.499 79.3438 273.946 78.5092C274.394 77.6747 275.001 77.0391 275.768 76.6023C276.535 76.1619 277.398 75.9418 278.357 75.9418C278.989 75.9418 279.575 76.0305 280.114 76.2081C280.658 76.3857 281.139 76.6449 281.558 76.9858C281.977 77.3232 282.318 77.7369 282.581 78.2269C282.847 78.717 283.017 79.2781 283.092 79.9102ZM294.771 81.5455C294.771 82.7351 294.545 83.7472 294.094 84.5817C293.647 85.4162 293.036 86.0536 292.262 86.494C291.491 86.9308 290.625 87.1491 289.663 87.1491C288.693 87.1491 287.823 86.929 287.052 86.4886C286.282 86.0483 285.673 85.4109 285.225 84.5763C284.778 83.7418 284.554 82.7315 284.554 81.5455C284.554 80.3558 284.778 79.3438 285.225 78.5092C285.673 77.6747 286.282 77.0391 287.052 76.6023C287.823 76.1619 288.693 75.9418 289.663 75.9418C290.625 75.9418 291.491 76.1619 292.262 76.6023C293.036 77.0391 293.647 77.6747 294.094 78.5092C294.545 79.3438 294.771 80.3558 294.771 81.5455ZM292.432 81.5455C292.432 80.7749 292.317 80.125 292.086 79.5959C291.859 79.0668 291.538 78.6655 291.122 78.392C290.707 78.1186 290.22 77.9819 289.663 77.9819C289.105 77.9819 288.619 78.1186 288.203 78.392C287.788 78.6655 287.464 79.0668 287.234 79.5959C287.006 80.125 286.893 80.7749 286.893 81.5455C286.893 82.3161 287.006 82.9659 287.234 83.495C287.464 84.0241 287.788 84.4254 288.203 84.6989C288.619 84.9723 289.105 85.109 289.663 85.109C290.22 85.109 290.707 84.9723 291.122 84.6989C291.538 84.4254 291.859 84.0241 292.086 83.495C292.317 82.9659 292.432 82.3161 292.432 81.5455ZM301.534 80.6452V82.4457H296.559V80.6452H301.534ZM313.536 81.5455C313.536 82.7351 313.31 83.7472 312.859 84.5817C312.412 85.4162 311.801 86.0536 311.027 86.494C310.256 86.9308 309.39 87.1491 308.427 87.1491C307.458 87.1491 306.588 86.929 305.817 86.4886C305.047 86.0483 304.438 85.4109 303.99 84.5763C303.543 83.7418 303.319 82.7315 303.319 81.5455C303.319 80.3558 303.543 79.3438 303.99 78.5092C304.438 77.6747 305.047 77.0391 305.817 76.6023C306.588 76.1619 307.458 75.9418 308.427 75.9418C309.39 75.9418 310.256 76.1619 311.027 76.6023C311.801 77.0391 312.412 77.6747 312.859 78.5092C313.31 79.3438 313.536 80.3558 313.536 81.5455ZM311.197 81.5455C311.197 80.7749 311.082 80.125 310.851 79.5959C310.624 79.0668 310.302 78.6655 309.887 78.392C309.471 78.1186 308.985 77.9819 308.427 77.9819C307.87 77.9819 307.383 78.1186 306.968 78.392C306.552 78.6655 306.229 79.0668 305.998 79.5959C305.771 80.125 305.657 80.7749 305.657 81.5455C305.657 82.3161 305.771 82.9659 305.998 83.495C306.229 84.0241 306.552 84.4254 306.968 84.6989C307.383 84.9723 307.87 85.109 308.427 85.109C308.985 85.109 309.471 84.9723 309.887 84.6989C310.302 84.4254 310.624 84.0241 310.851 83.495C311.082 82.9659 311.197 82.3161 311.197 81.5455ZM319.111 87H315.244V76.0909H319.143C320.241 76.0909 321.185 76.3093 321.977 76.7461C322.769 77.1793 323.378 77.8026 323.804 78.6158C324.234 79.429 324.449 80.402 324.449 81.5348C324.449 82.6712 324.234 83.6477 323.804 84.4645C323.378 85.2812 322.765 85.908 321.966 86.3448C321.171 86.7816 320.219 87 319.111 87ZM317.551 85.0238H319.015C319.697 85.0238 320.271 84.9031 320.736 84.6616C321.205 84.4165 321.556 84.0384 321.791 83.527C322.028 83.0121 322.147 82.348 322.147 81.5348C322.147 80.7287 322.028 80.07 321.791 79.5586C321.556 79.0472 321.206 78.6708 320.741 78.4293C320.276 78.1879 319.703 78.0671 319.021 78.0671H317.551V85.0238ZM326.157 87V76.0909H330.461C331.285 76.0909 331.988 76.2383 332.57 76.533C333.156 76.8242 333.602 77.2379 333.907 77.7741C334.216 78.3068 334.371 78.9336 334.371 79.6545C334.371 80.3789 334.215 81.0021 333.902 81.5241C333.59 82.0426 333.137 82.4403 332.544 82.7173C331.954 82.9943 331.241 83.1328 330.403 83.1328H327.521V81.2791H330.03C330.47 81.2791 330.836 81.2187 331.127 81.098C331.418 80.9773 331.635 80.7962 331.777 80.5547C331.922 80.3132 331.995 80.0131 331.995 79.6545C331.995 79.2923 331.922 78.9869 331.777 78.7383C331.635 78.4897 331.416 78.3015 331.122 78.1737C330.83 78.0423 330.463 77.9766 330.019 77.9766H328.464V87H326.157ZM332.048 82.0355L334.76 87H332.214L329.561 82.0355H332.048ZM338.307 76.0909V87H336.001V76.0909H338.307ZM349.33 76.0909V87H347.337L342.591 80.1339H342.511V87H340.205V76.0909H342.229L346.938 82.9517H347.034V76.0909H349.33ZM353.116 87H350.644L354.41 76.0909H357.382L361.143 87H358.671L355.939 78.5838H355.854L353.116 87ZM352.961 82.712H358.799V84.5124H352.961V82.712ZM360.707 77.9925V76.0909H369.667V77.9925H366.327V87H364.047V77.9925H360.707ZM373.449 76.0909V87H371.142V76.0909H373.449ZM385.371 81.5455C385.371 82.7351 385.146 83.7472 384.695 84.5817C384.248 85.4162 383.637 86.0536 382.863 86.494C382.092 86.9308 381.225 87.1491 380.263 87.1491C379.294 87.1491 378.424 86.929 377.653 86.4886C376.882 86.0483 376.273 85.4109 375.826 84.5763C375.379 83.7418 375.155 82.7315 375.155 81.5455C375.155 80.3558 375.379 79.3438 375.826 78.5092C376.273 77.6747 376.882 77.0391 377.653 76.6023C378.424 76.1619 379.294 75.9418 380.263 75.9418C381.225 75.9418 382.092 76.1619 382.863 76.6023C383.637 77.0391 384.248 77.6747 384.695 78.5092C385.146 79.3438 385.371 80.3558 385.371 81.5455ZM383.033 81.5455C383.033 80.7749 382.918 80.125 382.687 79.5959C382.46 79.0668 382.138 78.6655 381.723 78.392C381.307 78.1186 380.821 77.9819 380.263 77.9819C379.706 77.9819 379.219 78.1186 378.804 78.392C378.388 78.6655 378.065 79.0668 377.834 79.5959C377.607 80.125 377.493 80.7749 377.493 81.5455C377.493 82.3161 377.607 82.9659 377.834 83.495C378.065 84.0241 378.388 84.4254 378.804 84.6989C379.219 84.9723 379.706 85.109 380.263 85.109C380.821 85.109 381.307 84.9723 381.723 84.6989C382.138 84.4254 382.46 84.0241 382.687 83.495C382.918 82.9659 383.033 82.3161 383.033 81.5455ZM396.205 76.0909V87H394.212L389.466 80.1339H389.386V87H387.08V76.0909H389.104L393.813 82.9517H393.909V76.0909H396.205Z" fill="white"/>
<rect x="374" y="34" width="83" height="28" rx="7" fill="#FF3A00"/>
<path d="M393.948 53V42.0909H398.316C399.119 42.0909 399.788 42.2099 400.324 42.4478C400.86 42.6857 401.263 43.016 401.533 43.4386C401.803 43.8576 401.938 44.3406 401.938 44.8874C401.938 45.3136 401.853 45.6882 401.683 46.0114C401.512 46.331 401.278 46.5937 400.979 46.7997C400.685 47.0021 400.347 47.146 399.967 47.2312V47.3377C400.383 47.3555 400.772 47.4727 401.134 47.6893C401.5 47.9059 401.796 48.2095 402.023 48.6001C402.251 48.9872 402.364 49.4489 402.364 49.9851C402.364 50.5639 402.221 51.0806 401.933 51.5352C401.649 51.9862 401.228 52.343 400.67 52.6058C400.113 52.8686 399.426 53 398.609 53H393.948ZM396.255 51.1143H398.135C398.778 51.1143 399.246 50.9918 399.541 50.7468C399.836 50.4982 399.983 50.168 399.983 49.756C399.983 49.4542 399.911 49.1879 399.765 48.957C399.619 48.7262 399.412 48.5451 399.142 48.4137C398.875 48.2823 398.558 48.2166 398.188 48.2166H396.255V51.1143ZM396.255 46.6559H397.964C398.281 46.6559 398.561 46.6009 398.806 46.4908C399.055 46.3771 399.25 46.2173 399.392 46.0114C399.538 45.8054 399.61 45.5586 399.61 45.271C399.61 44.8768 399.47 44.5589 399.19 44.3175C398.913 44.076 398.518 43.9553 398.007 43.9553H396.255V46.6559ZM410.603 42.0909H412.91V49.1754C412.91 49.9709 412.72 50.6669 412.34 51.2635C411.964 51.8601 411.436 52.3253 410.758 52.6591C410.08 52.9893 409.29 53.1545 408.388 53.1545C407.482 53.1545 406.69 52.9893 406.012 52.6591C405.334 52.3253 404.806 51.8601 404.43 51.2635C404.053 50.6669 403.865 49.9709 403.865 49.1754V42.0909H406.172V48.9783C406.172 49.3938 406.262 49.7631 406.443 50.0863C406.628 50.4094 406.887 50.6634 407.221 50.848C407.555 51.0327 407.944 51.125 408.388 51.125C408.835 51.125 409.224 51.0327 409.554 50.848C409.888 50.6634 410.145 50.4094 410.326 50.0863C410.511 49.7631 410.603 49.3938 410.603 48.9783V42.0909ZM417.114 42.0909V53H414.808V42.0909H417.114ZM419.012 53V42.0909H421.318V51.0984H425.995V53H419.012ZM431.39 53H427.522V42.0909H431.422C432.519 42.0909 433.463 42.3093 434.255 42.7461C435.047 43.1793 435.656 43.8026 436.082 44.6158C436.512 45.429 436.727 46.402 436.727 47.5348C436.727 48.6712 436.512 49.6477 436.082 50.4645C435.656 51.2812 435.044 51.908 434.245 52.3448C433.449 52.7816 432.498 53 431.39 53ZM429.829 51.0238H431.294C431.975 51.0238 432.549 50.9031 433.014 50.6616C433.483 50.4165 433.835 50.0384 434.069 49.527C434.307 49.0121 434.426 48.348 434.426 47.5348C434.426 46.7287 434.307 46.07 434.069 45.5586C433.835 45.0472 433.485 44.6708 433.02 44.4293C432.554 44.1879 431.981 44.0671 431.299 44.0671H429.829V51.0238Z" fill="white"/>
<rect y="34" width="368" height="28" rx="7" fill="#FF3A00"/>
<path d="M11.8285 53H9.35689L13.1229 42.0909H16.0952L19.8558 53H17.3842L14.6516 44.5838H14.5664L11.8285 53ZM11.674 48.712H17.5121V50.5124H11.674V48.712ZM30.2815 45.9102H27.9484C27.9058 45.6083 27.8188 45.3402 27.6874 45.1058C27.556 44.8679 27.3873 44.6655 27.1814 44.4986C26.9754 44.3317 26.7375 44.2038 26.4676 44.1151C26.2013 44.0263 25.9118 43.9819 25.5993 43.9819C25.0347 43.9819 24.5429 44.1222 24.1238 44.4027C23.7048 44.6797 23.3799 45.0845 23.1491 45.6172C22.9182 46.1463 22.8028 46.7891 22.8028 47.5455C22.8028 48.3232 22.9182 48.9766 23.1491 49.5057C23.3834 50.0348 23.7101 50.4343 24.1292 50.7042C24.5482 50.9741 25.0329 51.109 25.5834 51.109C25.8923 51.109 26.1782 51.0682 26.441 50.9865C26.7073 50.9048 26.9434 50.7859 27.1494 50.6296C27.3554 50.4698 27.5258 50.2763 27.6608 50.049C27.7993 49.8217 27.8952 49.5625 27.9484 49.2713L30.2815 49.282C30.2211 49.7827 30.0702 50.2656 29.8287 50.7308C29.5908 51.1925 29.2694 51.6062 28.8646 51.9719C28.4633 52.3342 27.9839 52.6218 27.4264 52.8349C26.8724 53.0444 26.2456 53.1491 25.5461 53.1491C24.5731 53.1491 23.703 52.929 22.936 52.4886C22.1725 52.0483 21.5688 51.4109 21.1249 50.5763C20.6846 49.7418 20.4644 48.7315 20.4644 47.5455C20.4644 46.3558 20.6881 45.3438 21.1356 44.5092C21.583 43.6747 22.1903 43.0391 22.9573 42.6023C23.7243 42.1619 24.5873 41.9418 25.5461 41.9418C26.1782 41.9418 26.7641 42.0305 27.3039 42.2081C27.8472 42.3857 28.3284 42.6449 28.7474 42.9858C29.1665 43.3232 29.5074 43.7369 29.7702 44.2269C30.0365 44.717 30.2069 45.2781 30.2815 45.9102ZM41.5608 45.9102H39.2277C39.1851 45.6083 39.0981 45.3402 38.9667 45.1058C38.8353 44.8679 38.6666 44.6655 38.4607 44.4986C38.2547 44.3317 38.0168 44.2038 37.7469 44.1151C37.4806 44.0263 37.1911 43.9819 36.8786 43.9819C36.314 43.9819 35.8222 44.1222 35.4031 44.4027C34.9841 44.6797 34.6592 45.0845 34.4284 45.6172C34.1975 46.1463 34.0821 46.7891 34.0821 47.5455C34.0821 48.3232 34.1975 48.9766 34.4284 49.5057C34.6627 50.0348 34.9894 50.4343 35.4085 50.7042C35.8275 50.9741 36.3122 51.109 36.8627 51.109C37.1716 51.109 37.4575 51.0682 37.7203 50.9865C37.9866 50.9048 38.2227 50.7859 38.4287 50.6296C38.6347 50.4698 38.8051 50.2763 38.9401 50.049C39.0786 49.8217 39.1744 49.5625 39.2277 49.2713L41.5608 49.282C41.5004 49.7827 41.3495 50.2656 41.108 50.7308C40.8701 51.1925 40.5487 51.6062 40.1439 51.9719C39.7426 52.3342 39.2632 52.6218 38.7057 52.8349C38.1517 53.0444 37.5249 53.1491 36.8254 53.1491C35.8524 53.1491 34.9823 52.929 34.2153 52.4886C33.4518 52.0483 32.8481 51.4109 32.4042 50.5763C31.9639 49.7418 31.7437 48.7315 31.7437 47.5455C31.7437 46.3558 31.9674 45.3438 32.4149 44.5092C32.8623 43.6747 33.4695 43.0391 34.2366 42.6023C35.0036 42.1619 35.8666 41.9418 36.8254 41.9418C37.4575 41.9418 38.0434 42.0305 38.5832 42.2081C39.1265 42.3857 39.6077 42.6449 40.0267 42.9858C40.4458 43.3232 40.7867 43.7369 41.0494 44.2269C41.3158 44.717 41.4862 45.2781 41.5608 45.9102ZM43.2148 53V42.0909H50.5656V43.9925H45.5212V46.592H50.1874V48.4936H45.5212V51.0984H50.5869V53H43.2148ZM52.3993 53V42.0909H54.7058V51.0984H59.3826V53H52.3993ZM60.9101 53V42.0909H68.2609V43.9925H63.2165V46.592H67.8827V48.4936H63.2165V51.0984H68.2822V53H60.9101ZM70.0946 53V42.0909H74.3986C75.2225 42.0909 75.9256 42.2383 76.508 42.533C77.0939 42.8242 77.5396 43.2379 77.845 43.7741C78.1539 44.3068 78.3084 44.9336 78.3084 45.6545C78.3084 46.3789 78.1522 47.0021 77.8397 47.5241C77.5272 48.0426 77.0744 48.4403 76.4814 48.7173C75.8919 48.9943 75.1781 49.1328 74.34 49.1328H71.4583V47.2791H73.9672C74.4075 47.2791 74.7733 47.2187 75.0645 47.098C75.3556 46.9773 75.5723 46.7962 75.7143 46.5547C75.8599 46.3132 75.9327 46.0131 75.9327 45.6545C75.9327 45.2923 75.8599 44.9869 75.7143 44.7383C75.5723 44.4897 75.3539 44.3015 75.0591 44.1737C74.7679 44.0423 74.4004 43.9766 73.9565 43.9766H72.4011V53H70.0946ZM75.986 48.0355L78.6973 53H76.1511L73.4984 48.0355H75.986ZM81.8187 53H79.3471L83.1131 42.0909H86.0854L89.8461 53H87.3745L84.6419 44.5838H84.5566L81.8187 53ZM81.6642 48.712H87.5023V50.5124H81.6642V48.712ZM89.4106 43.9925V42.0909H98.3701V43.9925H95.0303V53H92.7504V43.9925H89.4106ZM102.152 42.0909V53H99.8456V42.0909H102.152ZM113.174 42.0909V53H111.182L106.436 46.1339H106.356V53H104.05V42.0909H106.074L110.783 48.9517H110.879V42.0909H113.174ZM122.314 45.6172C122.239 45.358 122.134 45.1289 121.999 44.93C121.864 44.7276 121.699 44.5572 121.504 44.4187C121.312 44.2766 121.092 44.1683 120.843 44.0938C120.598 44.0192 120.327 43.9819 120.028 43.9819C119.471 43.9819 118.981 44.1204 118.558 44.3974C118.139 44.6744 117.813 45.0774 117.578 45.6065C117.344 46.1321 117.227 46.7749 117.227 47.5348C117.227 48.2947 117.342 48.9411 117.573 49.4737C117.804 50.0064 118.13 50.413 118.553 50.6935C118.976 50.9705 119.475 51.109 120.05 51.109C120.572 51.109 121.017 51.0167 121.387 50.832C121.76 50.6438 122.044 50.3793 122.239 50.0384C122.438 49.6974 122.537 49.2944 122.537 48.8292L123.006 48.8984H120.194V47.1619H124.759V48.5362C124.759 49.495 124.556 50.3189 124.151 51.0078C123.747 51.6932 123.189 52.2223 122.479 52.5952C121.769 52.9645 120.955 53.1491 120.039 53.1491C119.016 53.1491 118.118 52.9237 117.344 52.4727C116.57 52.0181 115.966 51.3736 115.533 50.5391C115.103 49.701 114.888 48.7067 114.888 47.5561C114.888 46.6719 115.016 45.8835 115.272 45.1911C115.531 44.495 115.893 43.9055 116.358 43.4226C116.824 42.9396 117.365 42.5721 117.983 42.32C118.601 42.0678 119.27 41.9418 119.991 41.9418C120.609 41.9418 121.184 42.0323 121.717 42.2134C122.25 42.391 122.722 42.6431 123.134 42.9698C123.549 43.2965 123.889 43.6854 124.151 44.1364C124.414 44.5838 124.583 45.0774 124.657 45.6172H122.314ZM129.547 43.9925V42.0909H138.507V43.9925H135.167V53H132.887V43.9925H129.547ZM139.982 53V42.0909H142.289V46.592H146.971V42.0909H149.272V53H146.971V48.4936H142.289V53H139.982ZM151.174 53V42.0909H155.478C156.302 42.0909 157.005 42.2383 157.587 42.533C158.173 42.8242 158.619 43.2379 158.924 43.7741C159.233 44.3068 159.388 44.9336 159.388 45.6545C159.388 46.3789 159.231 47.0021 158.919 47.5241C158.606 48.0426 158.153 48.4403 157.56 48.7173C156.971 48.9943 156.257 49.1328 155.419 49.1328H152.537V47.2791H155.046C155.487 47.2791 155.852 47.2187 156.144 47.098C156.435 46.9773 156.651 46.7962 156.793 46.5547C156.939 46.3132 157.012 46.0131 157.012 45.6545C157.012 45.2923 156.939 44.9869 156.793 44.7383C156.651 44.4897 156.433 44.3015 156.138 44.1737C155.847 44.0423 155.479 43.9766 155.036 43.9766H153.48V53H151.174ZM157.065 48.0355L159.776 53H157.23L154.578 48.0355H157.065ZM171.042 47.5455C171.042 48.7351 170.817 49.7472 170.366 50.5817C169.918 51.4162 169.308 52.0536 168.533 52.494C167.763 52.9308 166.896 53.1491 165.934 53.1491C164.965 53.1491 164.095 52.929 163.324 52.4886C162.553 52.0483 161.944 51.4109 161.497 50.5763C161.049 49.7418 160.826 48.7315 160.826 47.5455C160.826 46.3558 161.049 45.3438 161.497 44.5092C161.944 43.6747 162.553 43.0391 163.324 42.6023C164.095 42.1619 164.965 41.9418 165.934 41.9418C166.896 41.9418 167.763 42.1619 168.533 42.6023C169.308 43.0391 169.918 43.6747 170.366 44.5092C170.817 45.3438 171.042 46.3558 171.042 47.5455ZM168.704 47.5455C168.704 46.7749 168.589 46.125 168.358 45.5959C168.13 45.0668 167.809 44.6655 167.394 44.392C166.978 44.1186 166.492 43.9819 165.934 43.9819C165.377 43.9819 164.89 44.1186 164.475 44.392C164.059 44.6655 163.736 45.0668 163.505 45.5959C163.278 46.125 163.164 46.7749 163.164 47.5455C163.164 48.3161 163.278 48.9659 163.505 49.495C163.736 50.0241 164.059 50.4254 164.475 50.6989C164.89 50.9723 165.377 51.109 165.934 51.109C166.492 51.109 166.978 50.9723 167.394 50.6989C167.809 50.4254 168.13 50.0241 168.358 49.495C168.589 48.9659 168.704 48.3161 168.704 47.5455ZM179.489 42.0909H181.796V49.1754C181.796 49.9709 181.606 50.6669 181.226 51.2635C180.849 51.8601 180.322 52.3253 179.644 52.6591C178.965 52.9893 178.175 53.1545 177.273 53.1545C176.368 53.1545 175.576 52.9893 174.898 52.6591C174.219 52.3253 173.692 51.8601 173.316 51.2635C172.939 50.6669 172.751 49.9709 172.751 49.1754V42.0909H175.057V48.9783C175.057 49.3938 175.148 49.7631 175.329 50.0863C175.514 50.4094 175.773 50.6634 176.107 50.848C176.441 51.0327 176.829 51.125 177.273 51.125C177.721 51.125 178.11 51.0327 178.44 50.848C178.774 50.6634 179.031 50.4094 179.212 50.0863C179.397 49.7631 179.489 49.3938 179.489 48.9783V42.0909ZM190.927 45.6172C190.852 45.358 190.748 45.1289 190.613 44.93C190.478 44.7276 190.313 44.5572 190.117 44.4187C189.926 44.2766 189.705 44.1683 189.457 44.0938C189.212 44.0192 188.94 43.9819 188.642 43.9819C188.084 43.9819 187.594 44.1204 187.172 44.3974C186.753 44.6744 186.426 45.0774 186.191 45.6065C185.957 46.1321 185.84 46.7749 185.84 47.5348C185.84 48.2947 185.955 48.9411 186.186 49.4737C186.417 50.0064 186.744 50.413 187.166 50.6935C187.589 50.9705 188.088 51.109 188.663 51.109C189.185 51.109 189.631 51.0167 190 50.832C190.373 50.6438 190.657 50.3793 190.852 50.0384C191.051 49.6974 191.151 49.2944 191.151 48.8292L191.619 48.8984H188.807V47.1619H193.372V48.5362C193.372 49.495 193.169 50.3189 192.765 51.0078C192.36 51.6932 191.802 52.2223 191.092 52.5952C190.382 52.9645 189.569 53.1491 188.652 53.1491C187.63 53.1491 186.731 52.9237 185.957 52.4727C185.183 52.0181 184.579 51.3736 184.146 50.5391C183.716 49.701 183.502 48.7067 183.502 47.5561C183.502 46.6719 183.629 45.8835 183.885 45.1911C184.144 44.495 184.506 43.9055 184.972 43.4226C185.437 42.9396 185.978 42.5721 186.596 42.32C187.214 42.0678 187.884 41.9418 188.604 41.9418C189.222 41.9418 189.798 42.0323 190.33 42.2134C190.863 42.391 191.335 42.6431 191.747 42.9698C192.163 43.2965 192.502 43.6854 192.765 44.1364C193.027 44.5838 193.196 45.0774 193.271 45.6172H190.927ZM195.104 53V42.0909H197.411V46.592H202.093V42.0909H204.394V53H202.093V48.4936H197.411V53H195.104ZM211.648 53H209.176L212.942 42.0909H215.915L219.675 53H217.204L214.471 44.5838H214.386L211.648 53ZM211.493 48.712H217.331V50.5124H211.493V48.712ZM220.988 53V42.0909H223.295V51.0984H227.972V53H220.988ZM229.499 53V42.0909H231.805V51.0984H236.482V53H229.499ZM241.066 43.9925V42.0909H250.025V43.9925H246.686V53H244.406V43.9925H241.066ZM251.501 53V42.0909H253.807V46.592H258.49V42.0909H260.791V53H258.49V48.4936H253.807V53H251.501ZM262.692 53V42.0909H270.043V43.9925H264.999V46.592H269.665V48.4936H264.999V51.0984H270.064V53H262.692ZM285.373 47.5455C285.373 48.7351 285.148 49.7472 284.697 50.5817C284.249 51.4162 283.639 52.0536 282.865 52.494C282.094 52.9308 281.227 53.1491 280.265 53.1491C279.296 53.1491 278.426 52.929 277.655 52.4886C276.884 52.0483 276.275 51.4109 275.828 50.5763C275.381 49.7418 275.157 48.7315 275.157 47.5455C275.157 46.3558 275.381 45.3438 275.828 44.5092C276.275 43.6747 276.884 43.0391 277.655 42.6023C278.426 42.1619 279.296 41.9418 280.265 41.9418C281.227 41.9418 282.094 42.1619 282.865 42.6023C283.639 43.0391 284.249 43.6747 284.697 44.5092C285.148 45.3438 285.373 46.3558 285.373 47.5455ZM283.035 47.5455C283.035 46.7749 282.92 46.125 282.689 45.5959C282.461 45.0668 282.14 44.6655 281.725 44.392C281.309 44.1186 280.823 43.9819 280.265 43.9819C279.708 43.9819 279.221 44.1186 278.806 44.392C278.39 44.6655 278.067 45.0668 277.836 45.5959C277.609 46.125 277.495 46.7749 277.495 47.5455C277.495 48.3161 277.609 48.9659 277.836 49.495C278.067 50.0241 278.39 50.4254 278.806 50.6989C279.221 50.9723 279.708 51.109 280.265 51.109C280.823 51.109 281.309 50.9723 281.725 50.6989C282.14 50.4254 282.461 50.0241 282.689 49.495C282.92 48.9659 283.035 48.3161 283.035 47.5455ZM287.082 53V42.0909H291.45C292.252 42.0909 292.922 42.2099 293.458 42.4478C293.994 42.6857 294.397 43.016 294.667 43.4386C294.937 43.8576 295.072 44.3406 295.072 44.8874C295.072 45.3136 294.987 45.6882 294.816 46.0114C294.646 46.331 294.411 46.5937 294.113 46.7997C293.818 47.0021 293.481 47.146 293.101 47.2312V47.3377C293.517 47.3555 293.905 47.4727 294.268 47.6893C294.633 47.9059 294.93 48.2095 295.157 48.6001C295.384 48.9872 295.498 49.4489 295.498 49.9851C295.498 50.5639 295.354 51.0806 295.067 51.5352C294.783 51.9862 294.362 52.343 293.804 52.6058C293.247 52.8686 292.56 53 291.743 53H287.082ZM289.388 51.1143H291.269C291.911 51.1143 292.38 50.9918 292.675 50.7468C292.97 50.4982 293.117 50.168 293.117 49.756C293.117 49.4542 293.044 49.1879 292.899 48.957C292.753 48.7262 292.545 48.5451 292.275 48.4137C292.009 48.2823 291.691 48.2166 291.322 48.2166H289.388V51.1143ZM289.388 46.6559H291.098C291.414 46.6559 291.695 46.6009 291.94 46.4908C292.188 46.3771 292.384 46.2173 292.526 46.0114C292.671 45.8054 292.744 45.5586 292.744 45.271C292.744 44.8768 292.604 44.5589 292.323 44.3175C292.046 44.076 291.652 43.9553 291.141 43.9553H289.388V46.6559ZM302.917 45.2283C302.874 44.7987 302.691 44.4648 302.368 44.2269C302.045 43.989 301.607 43.87 301.053 43.87C300.676 43.87 300.358 43.9233 300.099 44.0298C299.84 44.1328 299.641 44.2766 299.502 44.4613C299.368 44.646 299.3 44.8555 299.3 45.0898C299.293 45.2852 299.334 45.4556 299.423 45.6012C299.515 45.7468 299.641 45.8729 299.801 45.9794C299.961 46.0824 300.145 46.1729 300.355 46.2511C300.564 46.3256 300.788 46.3896 301.026 46.4428L302.006 46.6772C302.482 46.7837 302.919 46.9258 303.316 47.1033C303.714 47.2809 304.059 47.4993 304.35 47.7585C304.641 48.0178 304.866 48.3232 305.026 48.6747C305.19 49.0263 305.273 49.4293 305.277 49.8839C305.273 50.5515 305.103 51.1303 304.765 51.6204C304.431 52.1069 303.949 52.4851 303.316 52.755C302.688 53.0213 301.93 53.1545 301.042 53.1545C300.161 53.1545 299.394 53.0195 298.741 52.7496C298.091 52.4798 297.583 52.0803 297.217 51.5511C296.855 51.0185 296.665 50.3597 296.647 49.5749H298.879C298.904 49.9407 299.009 50.2461 299.194 50.4911C299.382 50.7326 299.632 50.9155 299.945 51.0398C300.261 51.1605 300.618 51.2209 301.015 51.2209C301.406 51.2209 301.745 51.1641 302.033 51.0504C302.324 50.9368 302.549 50.7788 302.709 50.5763C302.869 50.3739 302.949 50.1413 302.949 49.8786C302.949 49.6335 302.876 49.4276 302.73 49.2607C302.588 49.0937 302.379 48.9517 302.102 48.8345C301.828 48.7173 301.493 48.6108 301.095 48.5149L299.907 48.2166C298.988 47.9929 298.261 47.6431 297.729 47.1673C297.196 46.6914 296.931 46.0504 296.935 45.2443C296.931 44.5838 297.107 44.0067 297.462 43.5131C297.821 43.0195 298.313 42.6342 298.938 42.3572C299.563 42.0803 300.273 41.9418 301.069 41.9418C301.878 41.9418 302.585 42.0803 303.189 42.3572C303.796 42.6342 304.268 43.0195 304.605 43.5131C304.943 44.0067 305.117 44.5785 305.127 45.2283H302.917ZM306.413 43.9925V42.0909H315.372V43.9925H312.032V53H309.752V43.9925H306.413ZM317.395 53H314.923L318.689 42.0909H321.662L325.422 53H322.951L320.218 44.5838H320.133L317.395 53ZM317.24 48.712H323.078V50.5124H317.24V48.712ZM335.848 45.9102H333.515C333.472 45.6083 333.385 45.3402 333.254 45.1058C333.122 44.8679 332.954 44.6655 332.748 44.4986C332.542 44.3317 332.304 44.2038 332.034 44.1151C331.768 44.0263 331.478 43.9819 331.166 43.9819C330.601 43.9819 330.109 44.1222 329.69 44.4027C329.271 44.6797 328.946 45.0845 328.715 45.6172C328.485 46.1463 328.369 46.7891 328.369 47.5455C328.369 48.3232 328.485 48.9766 328.715 49.5057C328.95 50.0348 329.277 50.4343 329.696 50.7042C330.115 50.9741 330.599 51.109 331.15 51.109C331.459 51.109 331.745 51.0682 332.007 50.9865C332.274 50.9048 332.51 50.7859 332.716 50.6296C332.922 50.4698 333.092 50.2763 333.227 50.049C333.366 49.8217 333.462 49.5625 333.515 49.2713L335.848 49.282C335.788 49.7827 335.637 50.2656 335.395 50.7308C335.157 51.1925 334.836 51.6062 334.431 51.9719C334.03 52.3342 333.55 52.6218 332.993 52.8349C332.439 53.0444 331.812 53.1491 331.112 53.1491C330.139 53.1491 329.269 52.929 328.502 52.4886C327.739 52.0483 327.135 51.4109 326.691 50.5763C326.251 49.7418 326.031 48.7315 326.031 47.5455C326.031 46.3558 326.255 45.3438 326.702 44.5092C327.149 43.6747 327.757 43.0391 328.524 42.6023C329.291 42.1619 330.154 41.9418 331.112 41.9418C331.745 41.9418 332.331 42.0305 332.87 42.2081C333.414 42.3857 333.895 42.6449 334.314 42.9858C334.733 43.3232 335.074 43.7369 335.337 44.2269C335.603 44.717 335.773 45.2781 335.848 45.9102ZM337.502 53V42.0909H339.808V51.0984H344.485V53H337.502ZM346.013 53V42.0909H353.363V43.9925H348.319V46.592H352.985V48.4936H348.319V51.0984H353.385V53H346.013ZM361.115 45.2283C361.073 44.7987 360.89 44.4648 360.566 44.2269C360.243 43.989 359.805 43.87 359.251 43.87C358.874 43.87 358.557 43.9233 358.297 44.0298C358.038 44.1328 357.839 44.2766 357.701 44.4613C357.566 44.646 357.498 44.8555 357.498 45.0898C357.491 45.2852 357.532 45.4556 357.621 45.6012C357.713 45.7468 357.839 45.8729 357.999 45.9794C358.159 46.0824 358.343 46.1729 358.553 46.2511C358.763 46.3256 358.986 46.3896 359.224 46.4428L360.204 46.6772C360.68 46.7837 361.117 46.9258 361.515 47.1033C361.912 47.2809 362.257 47.4993 362.548 47.7585C362.839 48.0178 363.065 48.3232 363.225 48.6747C363.388 49.0263 363.471 49.4293 363.475 49.8839C363.471 50.5515 363.301 51.1303 362.964 51.6204C362.63 52.1069 362.147 52.4851 361.515 52.755C360.886 53.0213 360.128 53.1545 359.24 53.1545C358.359 53.1545 357.592 53.0195 356.939 52.7496C356.289 52.4798 355.781 52.0803 355.416 51.5511C355.053 51.0185 354.863 50.3597 354.846 49.5749H357.078C357.102 49.9407 357.207 50.2461 357.392 50.4911C357.58 50.7326 357.83 50.9155 358.143 51.0398C358.459 51.1605 358.816 51.2209 359.214 51.2209C359.604 51.2209 359.943 51.1641 360.231 51.0504C360.522 50.9368 360.748 50.7788 360.907 50.5763C361.067 50.3739 361.147 50.1413 361.147 49.8786C361.147 49.6335 361.074 49.4276 360.929 49.2607C360.787 49.0937 360.577 48.9517 360.3 48.8345C360.027 48.7173 359.691 48.6108 359.293 48.5149L358.106 48.2166C357.186 47.9929 356.46 47.6431 355.927 47.1673C355.394 46.6914 355.13 46.0504 355.133 45.2443C355.13 44.5838 355.305 44.0067 355.661 43.5131C356.019 43.0195 356.511 42.6342 357.136 42.3572C357.761 42.0803 358.471 41.9418 359.267 41.9418C360.076 41.9418 360.783 42.0803 361.387 42.3572C361.994 42.6342 362.466 43.0195 362.804 43.5131C363.141 44.0067 363.315 44.5785 363.326 45.2283H361.115Z" fill="white"/>
</svg>
