<svg version="1.1" id="Layer_1" xmlns="http://www.w3.org/2000/svg" xmlns:xlink="http://www.w3.org/1999/xlink" x="0px" y="0px"
	 width="100%" viewBox="0 0 1080 563" enable-background="new 0 0 1080 563" xml:space="preserve">
<path fill="#E0E0D8" opacity="1.000000" stroke="none" 
	d="
M826.000000,564.000000 
	C550.666748,564.000000 275.833496,564.000000 1.000184,564.000000 
	C1.000123,376.333466 1.000123,188.666946 1.000062,1.000310 
	C360.999756,1.000207 720.999512,1.000207 1080.999512,1.000103 
	C1080.999634,188.666367 1080.999634,376.332733 1080.999756,563.999512 
	C996.166687,564.000000 911.333313,564.000000 826.000000,564.000000 
M130.433014,334.151642 
	C130.896332,334.467529 131.359650,334.783417 132.030396,335.741730 
	C138.792801,341.642609 145.925262,345.945526 155.582184,345.919434 
	C232.580093,345.711487 309.578796,345.803986 386.577240,345.792267 
	C391.368866,345.791534 396.160492,345.688446 401.595184,345.979858 
	C402.381378,346.522614 403.264252,346.966125 403.938751,347.623505 
	C410.214661,353.740051 416.079285,360.340424 422.769470,365.959534 
	C453.558167,391.819092 488.782684,407.252716 529.176147,409.973114 
	C546.307800,411.126831 563.344238,411.117676 580.338379,407.567078 
	C616.073059,400.100983 647.220093,384.091248 673.644775,358.913879 
	C678.546570,354.243469 683.333862,349.452942 688.738953,345.281097 
	C691.052429,345.434998 693.365967,345.722931 695.679443,345.723450 
	C771.988037,345.739960 848.296692,345.771027 924.604858,345.597137 
	C928.408997,345.588501 932.573242,344.453094 935.947388,342.666809 
	C950.075134,335.187622 961.608276,324.353577 972.346680,312.724457 
	C976.249268,308.498199 979.640320,303.660278 982.516724,298.670197 
	C984.785156,294.734894 982.686951,292.325806 978.127930,292.674591 
	C975.643250,292.864655 973.152649,293.103760 970.664612,293.105042 
	C929.844421,293.125671 889.024292,293.125122 848.204102,293.102264 
	C804.886902,293.078003 761.569702,293.025269 718.358765,292.178284 
	C719.222351,289.843048 720.469238,287.571350 720.869202,285.159210 
	C721.688904,280.215668 724.024353,278.603485 729.232178,278.613342 
	C824.547668,278.793945 919.863586,278.764618 1015.179321,278.681641 
	C1017.696838,278.679443 1020.514099,278.115631 1022.682556,276.903229 
	C1039.179932,267.679260 1052.229492,254.461212 1064.095581,240.035507 
	C1067.243164,236.209061 1070.665527,232.053040 1069.558716,225.816025 
	C1067.608643,225.816025 1065.814575,225.815964 1064.020630,225.816010 
	C1001.865356,225.817673 939.710083,225.818878 877.554810,225.821243 
	C830.563416,225.823013 783.572021,225.850739 736.580933,225.731918 
	C734.854370,225.727539 732.143921,224.711182 731.609985,223.443085 
	C730.455750,220.701599 731.198120,218.337387 734.760376,216.905655 
	C741.230286,214.305344 747.313599,210.753738 753.744629,208.041092 
	C756.656128,206.812988 757.536804,205.047043 757.149841,202.307312 
	C755.986633,194.070572 754.893555,185.817291 753.382690,177.642578 
	C753.117737,176.209045 751.147583,174.373108 749.651306,174.007858 
	C742.868164,172.351959 736.000671,170.985031 729.107605,169.855743 
	C724.520020,169.104187 721.236389,167.767334 720.250854,162.406525 
	C719.513611,158.396240 717.614807,154.497177 715.676208,150.844208 
	C714.259338,148.174240 714.483093,146.362778 716.378479,144.170685 
	C721.277710,138.504639 725.873047,132.571228 730.875305,127.000938 
	C733.003113,124.631462 733.482300,122.713585 731.701111,120.026451 
	C727.290161,113.372070 722.919556,106.686386 718.735657,99.888367 
	C717.105103,97.239029 715.230774,96.968742 712.469910,97.715157 
	C705.241882,99.669289 697.991638,101.600441 690.652405,103.043030 
	C688.804932,103.406151 686.122681,102.438515 684.633118,101.148346 
	C680.495605,97.564735 676.928833,93.328178 672.853027,89.665108 
	C670.121399,87.210060 669.475525,84.877289 670.789490,81.377747 
	C673.241638,74.847260 675.100952,68.095856 677.483337,61.536777 
	C678.453369,58.866028 677.998291,57.216625 675.705750,55.620766 
	C669.154175,51.060104 662.635620,46.445816 656.238464,41.672424 
	C653.583496,39.691345 651.566956,39.508453 648.799072,41.701279 
	C642.934814,46.347183 636.620117,50.424210 630.751343,55.064804 
	C628.237549,57.052494 626.259155,57.093090 623.531616,55.758095 
	C618.607971,53.348232 613.619873,50.967960 608.441040,49.219975 
	C605.341492,48.173798 604.240295,46.580479 604.049194,43.553974 
	C603.608521,36.573975 602.637817,29.612041 602.528381,22.632641 
	C602.468201,18.798250 600.949524,17.192179 597.546021,16.544817 
	C589.865112,15.083858 582.225525,13.345852 574.493164,12.262404 
	C572.796082,12.024614 570.076721,13.568311 569.038147,15.107828 
	C564.760193,21.449440 561.114319,28.216938 556.850220,34.568836 
	C555.760742,36.191696 553.307861,37.700520 551.392822,37.818024 
	C545.589294,38.174110 539.715881,38.114468 533.926819,37.587933 
	C531.901611,37.403736 529.284851,35.850285 528.243591,34.131367 
	C524.456238,27.878870 521.377563,21.199453 517.658875,14.901142 
	C516.820251,13.480844 514.345398,11.968997 512.848450,12.170339 
	C504.452667,13.299582 496.090668,14.777730 487.808868,16.562710 
	C486.381470,16.870369 484.728729,19.059132 484.331909,20.663824 
	C483.216980,25.172550 481.961426,29.851931 482.096832,34.424461 
	C482.450012,46.351814 476.537567,52.711544 465.455261,55.219864 
	C464.815247,55.364723 464.186005,55.979073 463.609863,55.907452 
	C461.680511,55.667599 459.279297,55.825565 457.949860,54.739967 
	C451.904297,49.803234 446.249329,44.389854 440.242157,39.402943 
	C438.998688,38.370644 436.278656,37.482136 435.215942,38.129902 
	C427.847748,42.621094 420.614380,47.367264 413.651093,52.459984 
	C412.292145,53.453854 411.527130,56.447784 411.829193,58.300594 
	C412.710236,63.704872 413.748901,69.196381 415.683167,74.290146 
	C418.758881,82.389778 418.337433,89.009941 410.338531,93.915932 
	C409.105408,94.672264 407.999969,95.894699 407.263336,97.152199 
	C405.383942,100.360451 402.984283,100.532326 399.710907,99.415009 
	C392.152740,96.835129 384.468414,94.627235 376.878662,92.136276 
	C374.276306,91.282204 372.511627,91.746513 370.968811,94.113396 
	C366.702087,100.659027 362.415619,107.201172 357.854797,113.541718 
	C355.659515,116.593651 356.240051,118.822090 358.410461,121.466888 
	C362.946716,126.994576 367.093994,132.848404 371.750641,138.267899 
	C374.871521,141.899994 375.666260,145.131943 372.940338,149.391113 
	C371.174835,152.149628 370.600830,155.658539 368.908508,158.480774 
	C367.910370,160.145447 365.870361,162.070312 364.128204,162.253342 
	C355.859009,163.122055 347.535278,163.526382 339.222015,163.892502 
	C336.096893,164.030136 334.382690,165.139954 333.728607,168.343842 
	C332.133850,176.155350 330.078918,183.879639 328.723114,191.727798 
	C328.436707,193.385849 329.852631,196.131729 331.330658,197.162308 
	C337.462860,201.438065 343.872894,205.325150 350.268829,209.210236 
	C357.892151,213.840927 358.813965,216.060959 356.416992,225.628876 
	C355.207764,225.704514 353.910004,225.856720 352.612244,225.856613 
	C299.288727,225.852188 245.965210,225.825211 192.641693,225.820038 
	C133.652588,225.814331 74.663467,225.818848 15.674360,225.842377 
	C8.566417,225.845200 7.110237,228.477844 10.694411,234.639191 
	C11.111527,235.356247 11.646615,236.004715 12.127309,236.684753 
	C22.220366,250.963348 34.968288,262.589661 48.952034,272.863495 
	C53.417606,276.144348 58.154316,278.897247 64.401192,278.886230 
	C161.549774,278.714783 258.698730,278.764801 355.847626,278.764160 
	C366.394012,278.764099 366.749634,279.059937 368.996735,289.645142 
	C369.099335,290.128357 369.204529,290.611023 368.776306,291.845520 
	C367.163910,292.080292 365.551605,292.519501 363.939056,292.520477 
	C295.353424,292.561127 226.767746,292.562866 158.182068,292.569122 
	C139.038223,292.570862 119.894302,292.545349 100.750549,292.590210 
	C95.510185,292.602509 94.227127,293.964874 96.474251,298.447479 
	C98.711998,302.911285 102.195511,306.750580 105.285393,311.546021 
	C109.231537,315.248322 113.177689,318.950623 117.509636,323.101318 
	C117.986511,323.433777 118.463387,323.766266 119.089828,324.641846 
	C119.653152,325.124054 120.216469,325.606293 120.914604,326.763855 
	C123.962906,329.084015 127.011215,331.404205 130.433014,334.151642 
M310.139069,356.876648 
	C310.139069,356.876648 310.130890,356.777039 309.937561,356.105865 
	C308.340942,355.787079 306.744324,355.468292 304.502075,354.564026 
	C303.207458,354.375763 301.912964,354.024078 300.618195,354.023041 
	C263.597809,353.993439 226.577362,353.985504 189.557022,354.046387 
	C188.002136,354.048920 186.448395,354.745514 184.373383,355.483490 
	C184.436066,357.041138 184.498764,358.598816 184.835876,360.836395 
	C185.242630,361.741150 185.534744,362.721283 186.072983,363.539551 
	C198.463806,382.377380 214.472183,397.338074 234.500015,407.730103 
	C237.997375,409.544800 242.388809,410.366974 246.375412,410.392761 
	C278.530640,410.600494 310.687775,410.511047 342.844330,410.496460 
	C344.290314,410.495789 345.736267,410.341614 346.246246,410.312439 
	C335.132172,394.051880 323.938660,377.675110 312.811157,360.600159 
	C311.952942,359.351654 311.094757,358.103119 310.139069,356.876648 
M484.867523,514.116760 
	C484.867523,511.030975 484.867523,507.945190 484.867523,504.705078 
	C480.940521,504.705078 477.707367,504.705078 473.901947,504.705078 
	C473.901947,513.401733 473.885956,521.802856 473.905914,530.203796 
	C473.931305,540.883667 473.943878,540.883667 485.371979,540.765198 
	C485.897980,540.017883 486.867798,539.278137 486.880737,538.522095 
	C487.000427,531.529053 487.019073,524.531860 486.874847,517.539917 
	C486.857208,516.683472 485.709839,515.850403 484.867523,514.116760 
M356.111481,505.295135 
	C355.751373,505.993927 355.083649,506.690094 355.077667,507.391907 
	C354.999542,516.545593 354.958344,525.700806 355.079529,534.853394 
	C355.094604,535.991211 356.096466,537.115967 356.910400,538.879456 
	C357.693604,539.537170 358.468933,540.755920 359.261169,540.767029 
	C368.710510,540.899597 378.162415,540.852539 387.901184,540.852539 
	C387.901184,537.436218 387.901184,534.531433 387.901184,531.148254 
	C382.297241,531.148254 376.993866,531.019775 371.700104,531.189941 
	C367.639404,531.320374 367.258270,529.439270 368.595703,525.743469 
	C374.927521,525.743469 381.332397,525.743469 387.816925,525.743469 
	C387.816925,523.112793 387.816925,521.045227 387.816925,518.614746 
	C381.158905,518.614746 374.866089,518.614746 368.670074,518.614746 
	C366.970001,514.912537 368.236969,513.812866 371.677216,513.905762 
	C376.984131,514.049011 382.297729,513.943420 387.908142,513.943420 
	C387.908142,510.634888 387.908142,507.725067 387.908142,505.016724 
	C377.347809,505.016724 367.093933,505.016724 356.111481,505.295135 
M570.640320,521.488953 
	C570.851990,526.685913 571.063599,531.882812 571.562195,537.732971 
	C571.520935,538.661621 571.479675,539.590332 571.077515,540.697571 
	C571.218750,540.657715 571.360046,540.617798 572.349976,540.660339 
	C575.476746,540.660339 578.603516,540.660339 582.239075,540.660339 
	C582.443726,535.981384 582.642151,531.446045 582.846130,526.782043 
	C587.223877,526.782043 591.127747,526.782043 595.822144,526.782043 
	C595.822144,531.507690 595.822144,536.016602 595.822144,540.538635 
	C599.865601,540.538635 603.105286,540.538635 606.835510,540.538635 
	C606.538208,534.247192 608.764465,527.979919 603.244202,522.989990 
	C604.198364,521.696838 605.043091,520.701233 605.723999,519.603943 
	C609.100037,514.164368 606.628235,505.016174 601.216125,504.766571 
	C591.325195,504.310333 581.384033,504.943665 571.096436,505.247284 
	C571.003540,505.333221 570.821838,505.482422 570.831238,505.495636 
	C570.973633,505.695587 571.141052,505.877777 571.567017,506.955475 
	C571.470886,511.608887 571.374756,516.262268 570.640320,521.488953 
M544.466553,478.579529 
	C609.498108,477.185303 666.958496,455.944733 715.707458,412.544006 
	C733.569519,396.641602 748.666260,378.309875 760.926819,356.454163 
	C745.411438,356.454163 731.119629,356.269592 716.840576,356.614166 
	C714.076172,356.680908 710.781555,358.197693 708.739380,360.117645 
	C703.792480,364.768341 699.671021,370.287598 694.808594,375.039062 
	C671.020630,398.284576 643.505554,415.501160 611.954041,426.317963 
	C589.375916,434.058411 566.062134,438.032227 542.411804,437.723419 
	C526.253113,437.512390 510.007019,434.738220 494.033539,431.828125 
	C471.898102,427.795471 451.406433,418.796783 432.087189,407.454834 
	C411.124420,395.147980 392.811707,379.528290 377.419006,360.633850 
	C374.870239,357.505310 371.937103,356.328644 367.919556,356.386047 
	C354.423706,356.578949 340.923401,356.453918 327.424896,356.484497 
	C326.378510,356.486877 325.332733,356.753143 324.010956,356.934570 
	C324.443207,358.011963 324.603546,358.663361 324.937561,359.208221 
	C343.639801,389.712189 367.602905,415.224884 397.428314,435.069122 
	C441.645660,464.489105 490.513733,478.448669 544.466553,478.579529 
M795.500244,356.385712 
	C789.670044,356.393921 783.834900,356.547150 778.011597,356.350647 
	C774.992737,356.248810 773.471985,357.388611 771.740723,359.924927 
	C762.204041,373.896118 752.363708,387.661377 742.524292,401.423523 
	C740.467712,404.300049 737.977173,406.866425 735.198181,410.153442 
	C737.198486,410.330566 738.313660,410.514984 739.428955,410.515594 
	C771.244812,410.533752 803.060730,410.553619 834.876404,410.486908 
	C836.816162,410.482819 838.931213,410.144684 840.666504,409.328278 
	C862.283264,399.157959 879.260681,383.651825 892.334656,363.790192 
	C893.620850,361.836273 894.139282,359.376953 895.315308,356.385956 
	C861.698364,356.385956 829.099243,356.385956 795.500244,356.385712 
M760.109253,539.136780 
	C761.482544,539.709778 762.841797,540.734558 764.231506,540.777466 
	C770.223877,540.962463 776.225159,540.862427 782.223206,540.861084 
	C795.716797,540.857971 796.599365,539.920593 795.901794,526.353577 
	C795.638550,521.234863 793.609802,519.072510 788.558899,518.912048 
	C783.731262,518.758728 778.888794,518.968201 774.070984,518.696655 
	C773.058289,518.639587 772.124512,517.181580 771.154358,516.369080 
	C772.122864,515.569824 773.049072,514.150391 774.067322,514.080933 
	C778.046631,513.809692 782.054993,513.954468 786.052551,513.964905 
	C794.744873,513.987549 794.744873,513.992676 793.495056,504.633209 
	C784.280334,504.633209 774.975220,504.276550 765.738892,504.914429 
	C763.734131,505.052887 761.414368,508.495239 760.281982,510.905487 
	C759.381470,512.822266 760.008484,515.487427 760.066528,517.817688 
	C760.223816,524.133667 762.875732,526.913330 769.241394,527.174438 
	C773.566406,527.351868 777.910156,527.112732 782.230103,527.345886 
	C783.145752,527.395264 783.994385,528.686951 784.873962,529.406250 
	C784.034851,529.979370 783.262451,530.844238 782.340515,531.054688 
	C781.072510,531.344238 779.691406,531.143616 778.358765,531.144104 
	C772.417786,531.146118 766.476746,531.145020 760.028870,531.145020 
	C760.028870,533.982849 760.028870,536.112610 760.109253,539.136780 
M740.457703,504.418762 
	C734.048279,504.418762 727.638855,504.418762 721.276062,504.418762 
	C721.276062,516.951782 721.276062,528.674561 721.276062,540.856506 
	C723.242065,540.856506 724.907227,540.649109 726.502014,540.895874 
	C731.044067,541.598633 732.451355,539.642700 731.948181,535.320740 
	C731.629272,532.581726 731.888611,529.775330 731.888611,526.851074 
	C736.603394,526.851074 740.631104,526.851074 745.176758,526.851074 
	C745.176758,531.579041 745.176758,535.986145 745.176758,540.461853 
	C749.080750,540.461853 752.452515,540.461853 756.952209,540.461853 
	C755.970642,534.084473 755.076294,528.273987 754.007812,521.332031 
	C757.237244,518.533203 757.143860,513.363892 755.232178,508.408508 
	C753.219116,503.190308 748.116821,504.630585 743.931335,504.429504 
	C743.101746,504.389618 742.268738,504.420715 740.457703,504.418762 
M610.918945,512.954346 
	C610.918945,522.174683 610.918945,531.395020 610.918945,540.876953 
	C613.317993,540.876953 614.993469,540.704224 616.620850,540.910583 
	C620.833313,541.444702 622.280823,539.634949 621.864441,535.550293 
	C621.585388,532.812805 621.811401,530.023926 621.811401,526.805847 
	C624.625122,526.805847 626.776245,527.028015 628.863892,526.758606 
	C632.950256,526.231384 634.198608,528.023010 633.872131,531.856323 
	C633.626587,534.739685 633.823547,537.660828 633.823547,540.854736 
	C636.998108,540.854736 639.363342,541.156189 641.590820,540.732727 
	C642.776611,540.507385 644.622375,539.043518 644.638977,538.111389 
	C644.792908,529.474609 644.866333,520.819031 644.428345,512.196045 
	C644.191467,507.533875 641.264465,504.577057 636.309082,504.471710 
	C630.826538,504.355194 625.337402,504.356201 619.855103,504.480011 
	C614.921997,504.591400 611.667542,506.880157 610.918945,512.954346 
M715.705139,525.639160 
	C716.099365,523.518555 716.493530,521.397888 717.006714,518.637451 
	C710.932922,518.637451 705.799072,518.791687 700.685181,518.539917 
	C699.223694,518.467957 697.820129,517.219421 696.390015,516.510437 
	C697.835449,515.658264 699.243408,514.157166 700.733093,514.071167 
	C705.964478,513.769165 711.223999,513.953857 716.421997,513.953857 
	C716.421997,510.318787 716.421997,507.573883 716.421997,504.981445 
	C715.744934,504.713440 715.445129,504.493042 715.143433,504.490417 
	C709.146606,504.438171 703.149658,504.398529 697.152588,504.381531 
	C685.408936,504.348267 685.408264,504.354706 685.406494,516.094482 
	C685.405273,524.210388 685.406250,532.326294 685.406250,540.896362 
	C694.098694,540.896362 702.062378,540.899719 710.026001,540.895386 
	C717.022583,540.891602 717.044250,540.886841 716.732788,534.126587 
	C716.689697,533.190369 716.309631,532.269714 716.038269,531.146118 
	C710.520752,531.146118 705.191895,531.289185 699.881775,531.037659 
	C698.673157,530.980347 697.529236,529.557556 696.355530,528.763306 
	C697.520874,527.784851 698.635864,526.042480 699.860291,525.961853 
	C704.838440,525.634155 709.850098,525.816101 715.705139,525.639160 
M407.291168,511.654480 
	C407.291168,521.253357 407.291168,530.852295 407.291168,540.876221 
	C417.342773,540.876221 426.642426,540.913086 435.941559,540.859985 
	C440.278442,540.835205 438.460266,537.404907 438.761414,535.293457 
	C439.088013,533.003418 438.890869,530.991699 435.561676,531.094360 
	C429.951874,531.267456 424.332825,531.141846 418.454620,531.141846 
	C418.454620,529.167419 418.454620,527.778992 418.454620,525.841980 
	C423.511627,525.841980 428.300018,525.852478 433.088379,525.839355 
	C439.270844,525.822327 439.523987,525.481506 438.009247,518.681946 
	C432.856537,518.681946 427.563477,518.834167 422.290039,518.579712 
	C420.891632,518.512268 418.528809,517.364014 418.372528,516.419922 
	C417.817993,513.070679 420.697723,514.043396 422.462555,514.012268 
	C427.724121,513.919312 432.988403,513.978943 438.286987,513.978943 
	C438.286987,510.385895 438.286987,507.528107 438.286987,504.813873 
	C427.740784,504.813873 417.684540,504.813873 407.292603,504.813873 
	C407.292603,507.069122 407.292603,508.886932 407.291168,511.654480 
M552.529602,535.554382 
	C553.080933,532.449158 552.138489,530.888184 548.628784,531.075806 
	C544.313965,531.306519 539.961548,531.331055 535.659729,530.999207 
	C534.410950,530.902893 533.279846,529.279968 532.094788,528.356873 
	C533.352661,527.510315 534.553345,526.058777 535.879395,525.933472 
	C539.508972,525.590515 543.191467,525.785034 546.852783,525.804749 
	C553.174805,525.838684 553.552795,525.314636 551.527222,518.455322 
	C545.293213,518.455322 538.900452,518.455322 532.552979,518.455322 
	C532.348389,514.113464 532.347107,514.024414 535.798096,513.975281 
	C541.223450,513.898132 546.650757,513.954834 552.092163,513.954834 
	C552.092163,510.373932 552.092163,507.505737 552.092163,504.753845 
	C541.540649,504.753845 531.456726,504.753845 521.426270,504.753845 
	C521.426270,516.876221 521.426270,528.609192 521.426270,540.866577 
	C531.225769,540.866577 540.679382,540.978638 550.119629,540.673584 
	C550.958435,540.646423 551.709534,537.904724 552.529602,535.554382 
M333.635162,526.016663 
	C336.086151,526.016663 338.537170,526.016663 341.814270,526.016663 
	C341.814270,531.231567 341.814270,535.902161 341.814270,540.521240 
	C345.907196,540.521240 349.158051,540.521240 352.613098,540.521240 
	C352.613098,528.458069 352.613098,516.734802 352.613098,504.718597 
	C348.956848,504.718597 345.572327,504.718597 341.606628,504.718597 
	C341.606628,509.255249 341.606628,513.499756 341.606628,517.885620 
	C336.826752,517.885620 332.634308,517.885620 327.890350,517.885620 
	C327.890350,513.294800 327.890350,509.060944 327.890350,504.686096 
	C324.079987,504.686096 320.830872,504.686096 316.981659,504.686096 
	C316.981659,513.938538 316.988892,522.877014 316.979706,531.815491 
	C316.969666,541.569153 316.963409,541.573242 326.898987,540.667175 
	C327.175903,540.641907 327.424316,540.303406 328.058655,539.836975 
	C328.058655,535.662964 328.058655,531.215210 328.058655,526.374878 
	C329.829865,526.237793 331.260986,526.127014 333.635162,526.016663 
M680.769531,511.268829 
	C680.769531,509.167023 680.769531,507.065186 680.769531,504.584381 
	C672.376770,504.584381 664.564270,504.224152 656.806458,504.719788 
	C652.170410,505.015961 649.234558,508.470551 648.993835,513.123840 
	C648.650208,519.767639 648.749207,526.448853 648.985107,533.102539 
	C649.122803,536.986145 651.472656,540.248718 655.255920,540.474854 
	C663.642761,540.976074 672.080139,540.630920 680.532043,540.630920 
	C680.532043,537.311707 680.532043,534.550720 680.532043,531.154785 
	C673.553833,531.154785 666.834106,531.154785 659.977905,531.154785 
	C659.977905,525.122986 659.977905,519.738647 659.977905,513.952209 
	C665.829346,513.952209 671.293518,514.068115 676.746216,513.870239 
	C678.098022,513.821167 679.412842,512.755432 680.769531,511.268829 
M293.362061,533.354553 
	C293.399445,541.741638 293.399445,541.741638 304.262726,540.385925 
	C304.262726,533.847168 304.283142,527.224487 304.257416,520.601929 
	C304.227203,512.815674 304.098785,514.011963 311.017700,513.926453 
	C312.286682,513.910767 313.553009,513.681213 314.845856,513.547791 
	C314.845856,510.386414 314.845856,507.630127 314.845856,504.380859 
	C304.770416,504.380859 294.985443,504.309204 285.205536,504.497894 
	C284.284088,504.515686 282.762573,506.081207 282.619507,507.084930 
	C282.308685,509.265564 282.709045,511.547577 282.837463,514.171509 
	C286.537750,514.171509 289.636169,514.171509 293.360260,514.171509 
	C293.360260,520.515625 293.360260,526.454529 293.362061,533.354553 
M505.138855,540.883423 
	C507.982941,541.203369 508.403259,539.529114 508.358093,537.206177 
	C508.270844,532.721924 508.345367,528.234680 508.341431,523.748657 
	C508.333099,514.212463 508.330231,514.215881 517.801392,513.838257 
	C518.092468,513.826721 518.374207,513.582397 518.835205,513.363647 
	C518.835205,510.551514 518.835205,507.671967 518.835205,504.676422 
	C508.049011,504.676422 497.645111,504.676422 487.233887,504.676422 
	C487.233887,507.859833 487.233887,510.729431 487.233887,514.068665 
	C490.749664,514.068665 493.822723,514.068665 497.608124,514.068665 
	C497.608124,523.210144 497.608124,531.886292 497.608124,540.885742 
	C500.303070,540.885742 502.281647,540.885742 505.138855,540.883423 
M453.786682,513.574341 
	C453.786682,510.649811 453.786682,507.725281 453.786682,504.625244 
	C449.787933,504.625244 446.537079,504.625244 442.669708,504.625244 
	C442.669708,516.015808 442.616974,527.118896 442.770691,538.219055 
	C442.782867,539.098389 444.211548,540.697021 445.007629,540.713379 
	C453.773010,540.893921 462.543488,540.826721 471.615082,540.826721 
	C471.615082,537.399170 471.615082,534.527893 471.615082,531.046021 
	C465.602722,531.046021 459.895203,531.046021 453.786896,531.046021 
	C453.786896,525.143677 453.786896,519.847473 453.786682,513.574341 
z"/>
<path fill="#111110" opacity="1.000000" stroke="none" 
	d="
M369.308502,291.093964 
	C369.204529,290.611023 369.099335,290.128357 368.996735,289.645142 
	C366.749634,279.059937 366.394012,278.764099 355.847626,278.764160 
	C258.698730,278.764801 161.549774,278.714783 64.401192,278.886230 
	C58.154316,278.897247 53.417606,276.144348 48.952034,272.863495 
	C34.968288,262.589661 22.220366,250.963348 12.127309,236.684753 
	C11.646615,236.004715 11.111527,235.356247 10.694411,234.639191 
	C7.110237,228.477844 8.566417,225.845200 15.674360,225.842377 
	C74.663467,225.818848 133.652588,225.814331 192.641693,225.820038 
	C245.965210,225.825211 299.288727,225.852188 352.612244,225.856613 
	C353.910004,225.856720 355.207764,225.704514 356.416992,225.628876 
	C358.813965,216.060959 357.892151,213.840927 350.268829,209.210236 
	C343.872894,205.325150 337.462860,201.438065 331.330658,197.162308 
	C329.852631,196.131729 328.436707,193.385849 328.723114,191.727798 
	C330.078918,183.879639 332.133850,176.155350 333.728607,168.343842 
	C334.382690,165.139954 336.096893,164.030136 339.222015,163.892502 
	C347.535278,163.526382 355.859009,163.122055 364.128204,162.253342 
	C365.870361,162.070312 367.910370,160.145447 368.908508,158.480774 
	C370.600830,155.658539 371.174835,152.149628 372.940338,149.391113 
	C375.666260,145.131943 374.871521,141.899994 371.750641,138.267899 
	C367.093994,132.848404 362.946716,126.994576 358.410461,121.466888 
	C356.240051,118.822090 355.659515,116.593651 357.854797,113.541718 
	C362.415619,107.201172 366.702087,100.659027 370.968811,94.113396 
	C372.511627,91.746513 374.276306,91.282204 376.878662,92.136276 
	C384.468414,94.627235 392.152740,96.835129 399.710907,99.415009 
	C402.984283,100.532326 405.383942,100.360451 407.263336,97.152199 
	C407.999969,95.894699 409.105408,94.672264 410.338531,93.915932 
	C418.337433,89.009941 418.758881,82.389778 415.683167,74.290146 
	C413.748901,69.196381 412.710236,63.704872 411.829193,58.300594 
	C411.527130,56.447784 412.292145,53.453854 413.651093,52.459984 
	C420.614380,47.367264 427.847748,42.621094 435.215942,38.129902 
	C436.278656,37.482136 438.998688,38.370644 440.242157,39.402943 
	C446.249329,44.389854 451.904297,49.803234 457.949860,54.739967 
	C459.279297,55.825565 461.680511,55.667599 463.609863,55.907452 
	C464.186005,55.979073 464.815247,55.364723 465.455261,55.219864 
	C476.537567,52.711544 482.450012,46.351814 482.096832,34.424461 
	C481.961426,29.851931 483.216980,25.172550 484.331909,20.663824 
	C484.728729,19.059132 486.381470,16.870369 487.808868,16.562710 
	C496.090668,14.777730 504.452667,13.299582 512.848450,12.170339 
	C514.345398,11.968997 516.820251,13.480844 517.658875,14.901142 
	C521.377563,21.199453 524.456238,27.878870 528.243591,34.131367 
	C529.284851,35.850285 531.901611,37.403736 533.926819,37.587933 
	C539.715881,38.114468 545.589294,38.174110 551.392822,37.818024 
	C553.307861,37.700520 555.760742,36.191696 556.850220,34.568836 
	C561.114319,28.216938 564.760193,21.449440 569.038147,15.107828 
	C570.076721,13.568311 572.796082,12.024614 574.493164,12.262404 
	C582.225525,13.345852 589.865112,15.083858 597.546021,16.544817 
	C600.949524,17.192179 602.468201,18.798250 602.528381,22.632641 
	C602.637817,29.612041 603.608521,36.573975 604.049194,43.553974 
	C604.240295,46.580479 605.341492,48.173798 608.441040,49.219975 
	C613.619873,50.967960 618.607971,53.348232 623.531616,55.758095 
	C626.259155,57.093090 628.237549,57.052494 630.751343,55.064804 
	C636.620117,50.424210 642.934814,46.347183 648.799072,41.701279 
	C651.566956,39.508453 653.583496,39.691345 656.238464,41.672424 
	C662.635620,46.445816 669.154175,51.060104 675.705750,55.620766 
	C677.998291,57.216625 678.453369,58.866028 677.483337,61.536777 
	C675.100952,68.095856 673.241638,74.847260 670.789490,81.377747 
	C669.475525,84.877289 670.121399,87.210060 672.853027,89.665108 
	C676.928833,93.328178 680.495605,97.564735 684.633118,101.148346 
	C686.122681,102.438515 688.804932,103.406151 690.652405,103.043030 
	C697.991638,101.600441 705.241882,99.669289 712.469910,97.715157 
	C715.230774,96.968742 717.105103,97.239029 718.735657,99.888367 
	C722.919556,106.686386 727.290161,113.372070 731.701111,120.026451 
	C733.482300,122.713585 733.003113,124.631462 730.875305,127.000938 
	C725.873047,132.571228 721.277710,138.504639 716.378479,144.170685 
	C714.483093,146.362778 714.259338,148.174240 715.676208,150.844208 
	C717.614807,154.497177 719.513611,158.396240 720.250854,162.406525 
	C721.236389,167.767334 724.520020,169.104187 729.107605,169.855743 
	C736.000671,170.985031 742.868164,172.351959 749.651306,174.007858 
	C751.147583,174.373108 753.117737,176.209045 753.382690,177.642578 
	C754.893555,185.817291 755.986633,194.070572 757.149841,202.307312 
	C757.536804,205.047043 756.656128,206.812988 753.744629,208.041092 
	C747.313599,210.753738 741.230286,214.305344 734.760376,216.905655 
	C731.198120,218.337387 730.455750,220.701599 731.609985,223.443085 
	C732.143921,224.711182 734.854370,225.727539 736.580933,225.731918 
	C783.572021,225.850739 830.563416,225.823013 877.554810,225.821243 
	C939.710083,225.818878 1001.865356,225.817673 1064.020630,225.816010 
	C1065.814575,225.815964 1067.608643,225.816025 1069.558716,225.816025 
	C1070.665527,232.053040 1067.243164,236.209061 1064.095581,240.035507 
	C1052.229492,254.461212 1039.179932,267.679260 1022.682556,276.903229 
	C1020.514099,278.115631 1017.696838,278.679443 1015.179321,278.681641 
	C919.863586,278.764618 824.547668,278.793945 729.232178,278.613342 
	C724.024353,278.603485 721.688904,280.215668 720.869202,285.159210 
	C720.469238,287.571350 719.222351,289.843048 718.066772,292.789490 
	C713.202454,302.553284 709.029846,311.935638 703.941162,320.791565 
	C699.191406,329.057739 693.468567,336.764740 688.174011,344.717865 
	C683.333862,349.452942 678.546570,354.243469 673.644775,358.913879 
	C647.220093,384.091248 616.073059,400.100983 580.338379,407.567078 
	C563.344238,411.117676 546.307800,411.126831 529.176147,409.973114 
	C488.782684,407.252716 453.558167,391.819092 422.769470,365.959534 
	C416.079285,360.340424 410.214661,353.740051 403.938751,347.623505 
	C403.264252,346.966125 402.381378,346.522614 401.272614,345.488770 
	C389.671783,330.461700 379.520782,315.238586 372.265900,298.228851 
	C371.849182,297.251831 370.834869,296.529724 370.136047,295.534180 
	C370.173431,295.379333 370.036285,295.090454 370.116577,294.726196 
	C369.900757,293.272644 369.604614,292.183289 369.308502,291.093964 
M675.829590,198.710373 
	C673.461975,190.577179 671.718262,182.198196 668.626587,174.350220 
	C646.567017,118.353348 589.362915,82.394363 528.275391,88.402946 
	C497.981201,91.382690 471.394958,102.766510 449.339478,123.134575 
	C417.090302,152.916397 401.794342,190.314499 404.580414,234.448044 
	C406.711212,268.201904 420.295197,297.072052 443.720734,321.230530 
	C455.994751,333.888519 470.451569,343.706024 486.744965,350.568207 
	C519.703247,364.448914 553.316101,365.839874 587.024475,354.030121 
	C616.722168,343.625488 640.197693,324.828766 657.043274,298.116180 
	C676.184753,267.763062 682.256531,234.826172 675.829590,198.710373 
z"/>
<path fill="#131312" opacity="1.000000" stroke="none" 
	d="
M543.973328,478.576508 
	C490.513733,478.448669 441.645660,464.489105 397.428314,435.069122 
	C367.602905,415.224884 343.639801,389.712189 324.937561,359.208221 
	C324.603546,358.663361 324.443207,358.011963 324.010956,356.934570 
	C325.332733,356.753143 326.378510,356.486877 327.424896,356.484497 
	C340.923401,356.453918 354.423706,356.578949 367.919556,356.386047 
	C371.937103,356.328644 374.870239,357.505310 377.419006,360.633850 
	C392.811707,379.528290 411.124420,395.147980 432.087189,407.454834 
	C451.406433,418.796783 471.898102,427.795471 494.033539,431.828125 
	C510.007019,434.738220 526.253113,437.512390 542.411804,437.723419 
	C566.062134,438.032227 589.375916,434.058411 611.954041,426.317963 
	C643.505554,415.501160 671.020630,398.284576 694.808594,375.039062 
	C699.671021,370.287598 703.792480,364.768341 708.739380,360.117645 
	C710.781555,358.197693 714.076172,356.680908 716.840576,356.614166 
	C731.119629,356.269592 745.411438,356.454163 760.926819,356.454163 
	C748.666260,378.309875 733.569519,396.641602 715.707458,412.544006 
	C666.958496,455.944733 609.498108,477.185303 543.973328,478.576508 
z"/>
<path fill="#D15311" opacity="1.000000" stroke="none" 
	d="
M118.940262,324.098724 
	C118.463387,323.766266 117.986511,323.433777 117.263718,322.565125 
	C115.679619,320.363617 114.341423,318.698273 112.893875,316.813629 
	C112.589630,316.319031 112.334099,316.122650 112.009857,316.001770 
	C112.001793,315.998322 111.994789,315.982086 111.875031,315.767212 
	C111.543274,315.285767 111.273537,315.105560 110.748825,314.892853 
	C110.304695,314.581665 110.112480,314.344940 109.942429,313.705627 
	C107.913849,311.242615 105.917740,309.137787 103.738251,306.893982 
	C103.330093,306.541107 103.148361,306.295410 102.894562,305.802216 
	C102.579582,305.316803 102.322655,305.122559 102.004196,305.001892 
	C101.999725,305.000000 101.996338,304.991333 101.883759,304.777222 
	C101.575035,304.298492 101.329796,304.092194 101.013977,303.638245 
	C100.969238,302.923889 100.945999,302.515503 100.949585,301.673645 
	C100.594208,297.974457 102.052460,296.897583 105.290169,296.881653 
	C107.207085,296.872223 109.118141,295.671814 111.487030,295.003784 
	C115.281052,295.006775 118.619888,295.012939 122.275345,295.280762 
	C130.083893,295.668488 137.650772,299.036041 145.486023,295.019897 
	C148.268509,295.018677 150.611984,295.020660 153.250519,295.279297 
	C165.533279,295.977112 177.518585,296.581879 189.510162,296.757690 
	C193.013382,296.809052 196.534500,295.638336 200.362473,295.027100 
	C201.097565,295.029205 201.517593,295.032013 202.061615,295.396179 
	C205.642471,295.840088 209.099213,295.986176 212.556274,295.993896 
	C225.315796,296.022369 238.075684,296.042511 250.834763,295.961060 
	C252.572540,295.949982 254.306519,295.345062 256.404236,295.014191 
	C257.490112,295.020325 258.213989,295.027344 259.074341,295.409973 
	C260.717072,296.185455 262.216034,296.894684 263.730835,296.930267 
	C269.504944,297.065979 275.298553,297.236755 281.057068,296.907959 
	C286.073273,296.621582 291.052063,295.679901 296.362427,295.027100 
	C297.097504,295.029205 297.517548,295.032013 298.061584,295.396179 
	C301.645233,295.840057 305.104584,295.941101 308.564667,296.002075 
	C327.600494,296.337555 346.636963,296.641937 365.671600,297.035004 
	C367.104340,297.064575 368.524567,297.702393 369.971252,298.282959 
	C369.991913,298.508392 370.023468,298.960083 370.043213,299.260132 
	C370.390106,300.034149 370.717316,300.508148 371.204102,301.300964 
	C376.940735,311.575745 382.463379,321.562836 388.132019,331.466400 
	C389.605835,334.041290 391.660095,336.278503 393.220612,338.810791 
	C394.752045,341.296082 394.139526,342.967865 390.938507,343.046936 
	C389.106384,343.092194 387.272705,343.082123 385.439728,343.082092 
	C313.285645,343.080994 241.131577,343.087341 168.977493,343.065338 
	C158.562866,343.062164 147.903351,344.441162 138.492844,338.124451 
	C138.115692,337.871307 137.520752,337.942596 136.897278,337.676941 
	C136.563599,337.257965 136.317276,337.085663 135.771729,336.846893 
	C135.000839,336.168518 134.486542,335.617554 133.936493,334.710693 
	C131.908966,332.916412 129.917191,331.478058 127.604263,329.971069 
	C125.849808,328.620605 124.416496,327.338715 122.947975,325.715179 
	C121.948540,323.826935 121.524689,320.596405 118.940262,324.098724 
z"/>
<path fill="#111110" opacity="1.000000" stroke="none" 
	d="
M312.745178,361.298340 
	C323.938660,377.675110 335.132172,394.051880 346.246246,410.312439 
	C345.736267,410.341614 344.290314,410.495789 342.844330,410.496460 
	C310.687775,410.511047 278.530640,410.600494 246.375412,410.392761 
	C242.388809,410.366974 237.997375,409.544800 234.500015,407.730103 
	C214.472183,397.338074 198.463806,382.377380 186.072983,363.539551 
	C185.534744,362.721283 185.242630,361.741150 184.705719,360.016663 
	C184.927765,355.240448 188.021988,356.935120 189.859909,356.929291 
	C229.949997,356.802307 270.040497,356.801819 310.130890,356.777039 
	C310.130890,356.777039 310.139069,356.876648 310.231995,357.194946 
	C311.131653,358.774963 311.938416,360.036652 312.745178,361.298340 
z"/>
<path fill="#141413" opacity="1.000000" stroke="none" 
	d="
M796.000183,356.385834 
	C829.099243,356.385956 861.698364,356.385956 895.315308,356.385956 
	C894.139282,359.376953 893.620850,361.836273 892.334656,363.790192 
	C879.260681,383.651825 862.283264,399.157959 840.666504,409.328278 
	C838.931213,410.144684 836.816162,410.482819 834.876404,410.486908 
	C803.060730,410.553619 771.244812,410.533752 739.428955,410.515594 
	C738.313660,410.514984 737.198486,410.330566 735.198181,410.153442 
	C737.977173,406.866425 740.467712,404.300049 742.524292,401.423523 
	C752.363708,387.661377 762.204041,373.896118 771.740723,359.924927 
	C773.471985,357.388611 774.992737,356.248810 778.011597,356.350647 
	C783.834900,356.547150 789.670044,356.393921 796.000183,356.385834 
z"/>
<path fill="#BF6E3C" opacity="1.000000" stroke="none" 
	d="
M688.456482,344.999481 
	C693.468567,336.764740 699.191406,329.057739 703.941162,320.791565 
	C709.029846,311.935638 713.202454,302.553284 718.013672,293.192810 
	C761.569702,293.025269 804.886902,293.078003 848.204102,293.102264 
	C889.024292,293.125122 929.844421,293.125671 970.664612,293.105042 
	C973.152649,293.103760 975.643250,292.864655 978.127930,292.674591 
	C982.686951,292.325806 984.785156,294.734894 982.516724,298.670197 
	C979.640320,303.660278 976.249268,308.498199 972.346680,312.724457 
	C961.608276,324.353577 950.075134,335.187622 935.947388,342.666809 
	C932.573242,344.453094 928.408997,345.588501 924.604858,345.597137 
	C848.296692,345.771027 771.988037,345.739960 695.679443,345.723450 
	C693.365967,345.722931 691.052429,345.434998 688.456482,344.999481 
M718.206787,298.663269 
	C712.647339,312.020142 705.429749,324.408691 696.744873,335.982178 
	C695.560669,337.560333 695.322083,339.848145 694.645752,341.807404 
	C696.515320,342.212677 698.384583,342.970825 700.254517,342.972351 
	C774.049377,343.032959 847.844238,343.014832 921.639160,343.040802 
	C929.066223,343.043427 935.460327,340.202667 941.347412,336.071991 
	C945.523071,333.142181 949.794495,330.214722 953.430664,326.677094 
	C961.736938,318.595856 969.727905,310.186646 977.709595,301.780243 
	C978.724915,300.710907 978.919189,298.862030 979.493774,297.374268 
	C977.825989,296.906342 976.158630,296.030426 974.490417,296.029022 
	C891.533691,295.959717 808.576904,295.948669 725.620239,296.049072 
	C723.301086,296.051880 720.983521,297.334503 718.206787,298.663269 
z"/>
<path fill="#1E1D1A" opacity="1.000000" stroke="none" 
	d="
M760.069092,538.689575 
	C760.028870,536.112610 760.028870,533.982849 760.028870,531.145020 
	C766.476746,531.145020 772.417786,531.146118 778.358765,531.144104 
	C779.691406,531.143616 781.072510,531.344238 782.340515,531.054688 
	C783.262451,530.844238 784.034851,529.979370 784.873962,529.406250 
	C783.994385,528.686951 783.145752,527.395264 782.230103,527.345886 
	C777.910156,527.112732 773.566406,527.351868 769.241394,527.174438 
	C762.875732,526.913330 760.223816,524.133667 760.066528,517.817688 
	C760.008484,515.487427 759.381470,512.822266 760.281982,510.905487 
	C761.414368,508.495239 763.734131,505.052887 765.738892,504.914429 
	C774.975220,504.276550 784.280334,504.633209 793.495056,504.633209 
	C794.744873,513.992676 794.744873,513.987549 786.052551,513.964905 
	C782.054993,513.954468 778.046631,513.809692 774.067322,514.080933 
	C773.049072,514.150391 772.122864,515.569824 771.154358,516.369080 
	C772.124512,517.181580 773.058289,518.639587 774.070984,518.696655 
	C778.888794,518.968201 783.731262,518.758728 788.558899,518.912048 
	C793.609802,519.072510 795.638550,521.234863 795.901794,526.353577 
	C796.599365,539.920593 795.716797,540.857971 782.223206,540.861084 
	C776.225159,540.862427 770.223877,540.962463 764.231506,540.777466 
	C762.841797,540.734558 761.482544,539.709778 760.069092,538.689575 
z"/>
<path fill="#1A1A17" opacity="1.000000" stroke="none" 
	d="
M571.438416,540.518982 
	C571.479675,539.590332 571.520935,538.661621 571.539551,536.946655 
	C571.437500,531.078796 571.358093,525.997253 571.278687,520.915710 
	C571.374756,516.262268 571.470886,511.608887 571.557495,506.288513 
	C571.519897,505.455200 571.491821,505.288879 571.463806,505.122559 
	C581.384033,504.943665 591.325195,504.310333 601.216125,504.766571 
	C606.628235,505.016174 609.100037,514.164368 605.723999,519.603943 
	C605.043091,520.701233 604.198364,521.696838 603.244202,522.989990 
	C608.764465,527.979919 606.538208,534.247192 606.835510,540.538635 
	C603.105286,540.538635 599.865601,540.538635 595.822144,540.538635 
	C595.822144,536.016602 595.822144,531.507690 595.822144,526.782043 
	C591.127747,526.782043 587.223877,526.782043 582.846130,526.782043 
	C582.642151,531.446045 582.443726,535.981384 582.239075,540.660339 
	C578.603516,540.660339 575.476746,540.660339 571.888794,540.626404 
	C571.427673,540.592468 571.438416,540.518982 571.438416,540.518982 
M587.730652,518.916870 
	C589.054443,518.915833 590.386169,518.820312 591.700562,518.931274 
	C595.780823,519.275513 596.711365,517.582764 595.228210,514.188843 
	C590.923950,514.188843 586.885254,514.188843 582.969482,514.188843 
	C581.535278,518.465088 583.561768,519.266968 587.730652,518.916870 
z"/>
<path fill="#1A1916" opacity="1.000000" stroke="none" 
	d="
M740.947510,504.418884 
	C742.268738,504.420715 743.101746,504.389618 743.931335,504.429504 
	C748.116821,504.630585 753.219116,503.190308 755.232178,508.408508 
	C757.143860,513.363892 757.237244,518.533203 754.007812,521.332031 
	C755.076294,528.273987 755.970642,534.084473 756.952209,540.461853 
	C752.452515,540.461853 749.080750,540.461853 745.176758,540.461853 
	C745.176758,535.986145 745.176758,531.579041 745.176758,526.851074 
	C740.631104,526.851074 736.603394,526.851074 731.888611,526.851074 
	C731.888611,529.775330 731.629272,532.581726 731.948181,535.320740 
	C732.451355,539.642700 731.044067,541.598633 726.502014,540.895874 
	C724.907227,540.649109 723.242065,540.856506 721.276062,540.856506 
	C721.276062,528.674561 721.276062,516.951782 721.276062,504.418762 
	C727.638855,504.418762 734.048279,504.418762 740.947510,504.418884 
M744.169067,513.949341 
	C740.872742,513.902771 737.565002,513.691467 734.287659,513.919006 
	C733.406128,513.980103 731.811035,515.598877 731.953247,516.111389 
	C732.250732,517.182922 733.376648,518.611450 734.359863,518.786926 
	C736.598511,519.186646 738.971069,518.754333 741.262207,518.960510 
	C744.789124,519.278137 745.684204,517.689392 744.169067,513.949341 
z"/>
<path fill="#1A1A17" opacity="1.000000" stroke="none" 
	d="
M610.962585,512.515686 
	C611.667542,506.880157 614.921997,504.591400 619.855103,504.480011 
	C625.337402,504.356201 630.826538,504.355194 636.309082,504.471710 
	C641.264465,504.577057 644.191467,507.533875 644.428345,512.196045 
	C644.866333,520.819031 644.792908,529.474609 644.638977,538.111389 
	C644.622375,539.043518 642.776611,540.507385 641.590820,540.732727 
	C639.363342,541.156189 636.998108,540.854736 633.823547,540.854736 
	C633.823547,537.660828 633.626587,534.739685 633.872131,531.856323 
	C634.198608,528.023010 632.950256,526.231384 628.863892,526.758606 
	C626.776245,527.028015 624.625122,526.805847 621.811401,526.805847 
	C621.811401,530.023926 621.585388,532.812805 621.864441,535.550293 
	C622.280823,539.634949 620.833313,541.444702 616.620850,540.910583 
	C614.993469,540.704224 613.317993,540.876953 610.918945,540.876953 
	C610.918945,531.395020 610.918945,522.174683 610.962585,512.515686 
M621.681458,516.431396 
	C623.028931,518.780884 631.767944,520.386536 633.152161,518.287964 
	C633.767639,517.354858 632.955017,515.479797 632.790588,514.032227 
	C629.101990,514.518860 625.413452,515.005493 621.681458,516.431396 
z"/>
<path fill="#21211E" opacity="1.000000" stroke="none" 
	d="
M715.277283,525.724609 
	C709.850098,525.816101 704.838440,525.634155 699.860291,525.961853 
	C698.635864,526.042480 697.520874,527.784851 696.355530,528.763306 
	C697.529236,529.557556 698.673157,530.980347 699.881775,531.037659 
	C705.191895,531.289185 710.520752,531.146118 716.038269,531.146118 
	C716.309631,532.269714 716.689697,533.190369 716.732788,534.126587 
	C717.044250,540.886841 717.022583,540.891602 710.026001,540.895386 
	C702.062378,540.899719 694.098694,540.896362 685.406250,540.896362 
	C685.406250,532.326294 685.405273,524.210388 685.406494,516.094482 
	C685.408264,504.354706 685.408936,504.348267 697.152588,504.381531 
	C703.149658,504.398529 709.146606,504.438171 715.143433,504.490417 
	C715.445129,504.493042 715.744934,504.713440 716.421997,504.981445 
	C716.421997,507.573883 716.421997,510.318787 716.421997,513.953857 
	C711.223999,513.953857 705.964478,513.769165 700.733093,514.071167 
	C699.243408,514.157166 697.835449,515.658264 696.390015,516.510437 
	C697.820129,517.219421 699.223694,518.467957 700.685181,518.539917 
	C705.799072,518.791687 710.932922,518.637451 717.006714,518.637451 
	C716.493530,521.397888 716.099365,523.518555 715.277283,525.724609 
z"/>
<path fill="#20201C" opacity="1.000000" stroke="none" 
	d="
M407.291870,511.179626 
	C407.292603,508.886932 407.292603,507.069122 407.292603,504.813873 
	C417.684540,504.813873 427.740784,504.813873 438.286987,504.813873 
	C438.286987,507.528107 438.286987,510.385895 438.286987,513.978943 
	C432.988403,513.978943 427.724121,513.919312 422.462555,514.012268 
	C420.697723,514.043396 417.817993,513.070679 418.372528,516.419922 
	C418.528809,517.364014 420.891632,518.512268 422.290039,518.579712 
	C427.563477,518.834167 432.856537,518.681946 438.009247,518.681946 
	C439.523987,525.481506 439.270844,525.822327 433.088379,525.839355 
	C428.300018,525.852478 423.511627,525.841980 418.454620,525.841980 
	C418.454620,527.778992 418.454620,529.167419 418.454620,531.141846 
	C424.332825,531.141846 429.951874,531.267456 435.561676,531.094360 
	C438.890869,530.991699 439.088013,533.003418 438.761414,535.293457 
	C438.460266,537.404907 440.278442,540.835205 435.941559,540.859985 
	C426.642426,540.913086 417.342773,540.876221 407.291168,540.876221 
	C407.291168,530.852295 407.291168,521.253357 407.291870,511.179626 
z"/>
<path fill="#1E1E1B" opacity="1.000000" stroke="none" 
	d="
M552.515503,535.989075 
	C551.709534,537.904724 550.958435,540.646423 550.119629,540.673584 
	C540.679382,540.978638 531.225769,540.866577 521.426270,540.866577 
	C521.426270,528.609192 521.426270,516.876221 521.426270,504.753845 
	C531.456726,504.753845 541.540649,504.753845 552.092163,504.753845 
	C552.092163,507.505737 552.092163,510.373932 552.092163,513.954834 
	C546.650757,513.954834 541.223450,513.898132 535.798096,513.975281 
	C532.347107,514.024414 532.348389,514.113464 532.552979,518.455322 
	C538.900452,518.455322 545.293213,518.455322 551.527222,518.455322 
	C553.552795,525.314636 553.174805,525.838684 546.852783,525.804749 
	C543.191467,525.785034 539.508972,525.590515 535.879395,525.933472 
	C534.553345,526.058777 533.352661,527.510315 532.094788,528.356873 
	C533.279846,529.279968 534.410950,530.902893 535.659729,530.999207 
	C539.961548,531.331055 544.313965,531.306519 548.628784,531.075806 
	C552.138489,530.888184 553.080933,532.449158 552.515503,535.989075 
z"/>
<path fill="#1E1E1B" opacity="1.000000" stroke="none" 
	d="
M356.840057,505.016724 
	C367.093933,505.016724 377.347809,505.016724 387.908142,505.016724 
	C387.908142,507.725067 387.908142,510.634888 387.908142,513.943420 
	C382.297729,513.943420 376.984131,514.049011 371.677216,513.905762 
	C368.236969,513.812866 366.970001,514.912537 368.670074,518.614746 
	C374.866089,518.614746 381.158905,518.614746 387.816925,518.614746 
	C387.816925,521.045227 387.816925,523.112793 387.816925,525.743469 
	C381.332397,525.743469 374.927521,525.743469 368.595703,525.743469 
	C367.258270,529.439270 367.639404,531.320374 371.700104,531.189941 
	C376.993866,531.019775 382.297241,531.148254 387.901184,531.148254 
	C387.901184,534.531433 387.901184,537.436218 387.901184,540.852539 
	C378.162415,540.852539 368.710510,540.899597 359.261169,540.767029 
	C358.468933,540.755920 357.693604,539.537170 356.880371,538.153320 
	C356.846924,526.623718 356.843475,515.820190 356.840057,505.016724 
z"/>
<path fill="#C27849" opacity="1.000000" stroke="none" 
	d="
M137.027298,337.862701 
	C137.520752,337.942596 138.115692,337.871307 138.492844,338.124451 
	C147.903351,344.441162 158.562866,343.062164 168.977493,343.065338 
	C241.131577,343.087341 313.285645,343.080994 385.439728,343.082092 
	C387.272705,343.082123 389.106384,343.092194 390.938507,343.046936 
	C394.139526,342.967865 394.752045,341.296082 393.220612,338.810791 
	C391.660095,336.278503 389.605835,334.041290 388.132019,331.466400 
	C382.463379,321.562836 376.940735,311.575745 371.166504,301.008240 
	C370.654022,299.917816 370.338745,299.438934 370.023468,298.960083 
	C370.023468,298.960083 369.991913,298.508392 370.000671,297.888092 
	C370.039154,296.741516 370.068909,296.215271 370.098663,295.688995 
	C370.834869,296.529724 371.849182,297.251831 372.265900,298.228851 
	C379.520782,315.238586 389.671783,330.461700 400.951080,345.315308 
	C396.160492,345.688446 391.368866,345.791534 386.577240,345.792267 
	C309.578796,345.803986 232.580093,345.711487 155.582184,345.919434 
	C145.925262,345.945526 138.792801,341.642609 132.284103,335.380493 
	C133.015945,335.035004 133.494095,335.050812 133.972229,335.066589 
	C134.486542,335.617554 135.000839,336.168518 135.887390,337.047089 
	C136.461502,337.622314 136.717392,337.784973 137.027298,337.862701 
z"/>
<path fill="#1A1916" opacity="1.000000" stroke="none" 
	d="
M333.163635,526.016479 
	C331.260986,526.127014 329.829865,526.237793 328.058655,526.374878 
	C328.058655,531.215210 328.058655,535.662964 328.058655,539.836975 
	C327.424316,540.303406 327.175903,540.641907 326.898987,540.667175 
	C316.963409,541.573242 316.969666,541.569153 316.979706,531.815491 
	C316.988892,522.877014 316.981659,513.938538 316.981659,504.686096 
	C320.830872,504.686096 324.079987,504.686096 327.890350,504.686096 
	C327.890350,509.060944 327.890350,513.294800 327.890350,517.885620 
	C332.634308,517.885620 336.826752,517.885620 341.606628,517.885620 
	C341.606628,513.499756 341.606628,509.255249 341.606628,504.718597 
	C345.572327,504.718597 348.956848,504.718597 352.613098,504.718597 
	C352.613098,516.734802 352.613098,528.458069 352.613098,540.521240 
	C349.158051,540.521240 345.907196,540.521240 341.814270,540.521240 
	C341.814270,535.902161 341.814270,531.231567 341.814270,526.016663 
	C338.537170,526.016663 336.086151,526.016663 333.163635,526.016479 
z"/>
<path fill="#C27849" opacity="1.000000" stroke="none" 
	d="
M121.958717,295.019104 
	C118.619888,295.012939 115.281052,295.006775 111.019020,294.987640 
	C107.652924,294.970947 105.188934,294.771851 102.774605,295.032654 
	C101.185234,295.204315 99.667435,296.038544 98.117584,296.576111 
	C99.052643,298.419800 99.987701,300.263458 100.922760,302.107147 
	C100.945999,302.515503 100.969238,302.923889 101.112305,303.863953 
	C101.422241,304.677155 101.676979,304.875702 101.996338,304.991333 
	C101.996338,304.991333 101.999725,305.000000 102.118347,305.217560 
	C102.440582,305.700897 102.698151,305.895172 103.009666,306.017914 
	C103.148361,306.295410 103.330093,306.541107 103.791084,307.216736 
	C104.477829,308.660126 104.928352,309.641815 105.317459,310.683655 
	C105.256042,310.743805 105.132797,310.863708 105.132797,310.863708 
	C102.195511,306.750580 98.711998,302.911285 96.474251,298.447479 
	C94.227127,293.964874 95.510185,292.602509 100.750549,292.590210 
	C119.894302,292.545349 139.038223,292.570862 158.182068,292.569122 
	C226.767746,292.562866 295.353424,292.561127 363.939056,292.520477 
	C365.551605,292.519501 367.163910,292.080292 369.042419,291.469727 
	C369.604614,292.183289 369.900757,293.272644 369.645386,294.700165 
	C345.375153,295.037170 321.656372,295.035980 297.937592,295.034821 
	C297.517548,295.032013 297.097504,295.029205 295.889069,295.004150 
	C283.046417,294.999390 270.992126,295.016876 258.937866,295.034363 
	C258.213989,295.027344 257.490112,295.020325 255.931259,294.993439 
	C237.376740,294.993988 219.657181,295.014404 201.937637,295.034821 
	C201.517593,295.032013 201.097565,295.029205 199.889099,295.004150 
	C183.718948,294.995453 168.337189,295.009033 152.955444,295.022614 
	C150.611984,295.020660 148.268509,295.018677 145.012665,294.997559 
	C136.719757,294.992004 129.339233,295.005554 121.958717,295.019104 
z"/>
<path fill="#1D1D19" opacity="1.000000" stroke="none" 
	d="
M680.757080,511.712952 
	C679.412842,512.755432 678.098022,513.821167 676.746216,513.870239 
	C671.293518,514.068115 665.829346,513.952209 659.977905,513.952209 
	C659.977905,519.738647 659.977905,525.122986 659.977905,531.154785 
	C666.834106,531.154785 673.553833,531.154785 680.532043,531.154785 
	C680.532043,534.550720 680.532043,537.311707 680.532043,540.630920 
	C672.080139,540.630920 663.642761,540.976074 655.255920,540.474854 
	C651.472656,540.248718 649.122803,536.986145 648.985107,533.102539 
	C648.749207,526.448853 648.650208,519.767639 648.993835,513.123840 
	C649.234558,508.470551 652.170410,505.015961 656.806458,504.719788 
	C664.564270,504.224152 672.376770,504.584381 680.769531,504.584381 
	C680.769531,507.065186 680.769531,509.167023 680.757080,511.712952 
z"/>
<path fill="#1E1D1A" opacity="1.000000" stroke="none" 
	d="
M293.361145,532.873962 
	C293.360260,526.454529 293.360260,520.515625 293.360260,514.171509 
	C289.636169,514.171509 286.537750,514.171509 282.837463,514.171509 
	C282.709045,511.547577 282.308685,509.265564 282.619507,507.084930 
	C282.762573,506.081207 284.284088,504.515686 285.205536,504.497894 
	C294.985443,504.309204 304.770416,504.380859 314.845856,504.380859 
	C314.845856,507.630127 314.845856,510.386414 314.845856,513.547791 
	C313.553009,513.681213 312.286682,513.910767 311.017700,513.926453 
	C304.098785,514.011963 304.227203,512.815674 304.257416,520.601929 
	C304.283142,527.224487 304.262726,533.847168 304.262726,540.385925 
	C293.399445,541.741638 293.399445,541.741638 293.361145,532.873962 
z"/>
<path fill="#1A1916" opacity="1.000000" stroke="none" 
	d="
M504.699524,540.884583 
	C502.281647,540.885742 500.303070,540.885742 497.608124,540.885742 
	C497.608124,531.886292 497.608124,523.210144 497.608124,514.068665 
	C493.822723,514.068665 490.749664,514.068665 487.233887,514.068665 
	C487.233887,510.729431 487.233887,507.859833 487.233887,504.676422 
	C497.645111,504.676422 508.049011,504.676422 518.835205,504.676422 
	C518.835205,507.671967 518.835205,510.551514 518.835205,513.363647 
	C518.374207,513.582397 518.092468,513.826721 517.801392,513.838257 
	C508.330231,514.215881 508.333099,514.212463 508.341431,523.748657 
	C508.345367,528.234680 508.270844,532.721924 508.358093,537.206177 
	C508.403259,539.529114 507.982941,541.203369 504.699524,540.884583 
z"/>
<path fill="#1C1B18" opacity="1.000000" stroke="none" 
	d="
M453.786804,514.062866 
	C453.786896,519.847473 453.786896,525.143677 453.786896,531.046021 
	C459.895203,531.046021 465.602722,531.046021 471.615082,531.046021 
	C471.615082,534.527893 471.615082,537.399170 471.615082,540.826721 
	C462.543488,540.826721 453.773010,540.893921 445.007629,540.713379 
	C444.211548,540.697021 442.782867,539.098389 442.770691,538.219055 
	C442.616974,527.118896 442.669708,516.015808 442.669708,504.625244 
	C446.537079,504.625244 449.787933,504.625244 453.786682,504.625244 
	C453.786682,507.725281 453.786682,510.649811 453.786804,514.062866 
z"/>
<path fill="#1A1A17" opacity="1.000000" stroke="none" 
	d="
M484.534424,540.876770 
	C473.943878,540.883667 473.931305,540.883667 473.905914,530.203796 
	C473.885956,521.802856 473.901947,513.401733 473.901947,504.705078 
	C477.707367,504.705078 480.940521,504.705078 484.867523,504.705078 
	C484.867523,507.945190 484.867523,511.030975 484.900208,515.024414 
	C484.800079,524.246948 484.667267,532.561890 484.534424,540.876770 
z"/>
<path fill="#9E9D9B" opacity="1.000000" stroke="none" 
	d="
M310.034241,356.441467 
	C270.040497,356.801819 229.949997,356.802307 189.859909,356.929291 
	C188.021988,356.935120 184.927765,355.240448 184.568497,359.676697 
	C184.498764,358.598816 184.436066,357.041138 185.111816,355.355652 
	C225.616058,355.201721 265.381866,355.175629 305.147705,355.149536 
	C306.744324,355.468292 308.340942,355.787079 310.034241,356.441467 
z"/>
<path fill="#EAE8E7" opacity="1.000000" stroke="none" 
	d="
M304.824890,354.856781 
	C265.381866,355.175629 225.616058,355.201721 185.372192,355.173309 
	C186.448395,354.745514 188.002136,354.048920 189.557022,354.046387 
	C226.577362,353.985504 263.597809,353.993439 300.618195,354.023041 
	C301.912964,354.024078 303.207458,354.375763 304.824890,354.856781 
z"/>
<path fill="#EAE8E7" opacity="1.000000" stroke="none" 
	d="
M356.475769,505.155945 
	C356.843475,515.820190 356.846924,526.623718 356.745728,537.836975 
	C356.096466,537.115967 355.094604,535.991211 355.079529,534.853394 
	C354.958344,525.700806 354.999542,516.545593 355.077667,507.391907 
	C355.083649,506.690094 355.751373,505.993927 356.475769,505.155945 
z"/>
<path fill="#EAE8E7" opacity="1.000000" stroke="none" 
	d="
M484.953217,540.820984 
	C484.667267,532.561890 484.800079,524.246948 485.009460,515.469238 
	C485.709839,515.850403 486.857208,516.683472 486.874847,517.539917 
	C487.019073,524.531860 487.000427,531.529053 486.880737,538.522095 
	C486.867798,539.278137 485.897980,540.017883 484.953217,540.820984 
z"/>
<path fill="#C27849" opacity="1.000000" stroke="none" 
	d="
M113.003235,317.032928 
	C114.341423,318.698273 115.679619,320.363617 117.070816,322.340942 
	C113.177689,318.950623 109.231537,315.248322 105.209091,311.204865 
	C105.132797,310.863708 105.256042,310.743805 105.600464,310.839661 
	C107.288231,311.978302 108.631577,313.021057 109.974915,314.063843 
	C110.112480,314.344940 110.304695,314.581665 110.877869,315.100708 
	C111.413918,315.688995 111.677460,315.873871 111.994789,315.982086 
	C111.994789,315.982086 112.001793,315.998322 112.121078,316.218414 
	C112.440842,316.705688 112.695137,316.903839 113.003235,317.032928 
z"/>
<path fill="#C27849" opacity="1.000000" stroke="none" 
	d="
M122.983177,326.056854 
	C124.416496,327.338715 125.849808,328.620605 127.756058,330.243286 
	C128.839172,331.630829 129.449356,332.677612 130.059525,333.724365 
	C127.011215,331.404205 123.962906,329.084015 121.214615,326.404175 
	C122.004150,326.048584 122.493660,326.052704 122.983177,326.056854 
z"/>
<path fill="#BB5E27" opacity="1.000000" stroke="none" 
	d="
M130.246277,333.937988 
	C129.449356,332.677612 128.839172,331.630829 128.077209,330.311890 
	C129.917191,331.478058 131.908966,332.916412 133.936493,334.710693 
	C133.494095,335.050812 133.015945,335.035004 132.180389,335.059265 
	C131.359650,334.783417 130.896332,334.467529 130.246277,333.937988 
z"/>
<path fill="#EAE8E7" opacity="1.000000" stroke="none" 
	d="
M570.959473,521.202332 
	C571.358093,525.997253 571.437500,531.078796 571.396118,536.620056 
	C571.063599,531.882812 570.851990,526.685913 570.959473,521.202332 
z"/>
<path fill="#BB5E27" opacity="1.000000" stroke="none" 
	d="
M122.947975,325.715179 
	C122.493660,326.052704 122.004150,326.048584 121.147217,326.066467 
	C120.216469,325.606293 119.653152,325.124054 119.015045,324.370300 
	C121.524689,320.596405 121.948540,323.826935 122.947975,325.715179 
z"/>
<path fill="#9E9D9B" opacity="1.000000" stroke="none" 
	d="
M312.778168,360.949249 
	C311.938416,360.036652 311.131653,358.774963 310.280731,357.183960 
	C311.094757,358.103119 311.952942,359.351654 312.778168,360.949249 
z"/>
<path fill="#EAE8E7" opacity="1.000000" stroke="none" 
	d="
M571.464478,540.585205 
	C571.360046,540.617798 571.218750,540.657715 571.257935,540.608276 
	C571.438416,540.518982 571.427673,540.592468 571.464478,540.585205 
z"/>
<path fill="#EAE8E7" opacity="1.000000" stroke="none" 
	d="
M571.280151,505.184937 
	C571.491821,505.288879 571.519897,505.455200 571.425293,505.842834 
	C571.141052,505.877777 570.973633,505.695587 570.831238,505.495636 
	C570.821838,505.482422 571.003540,505.333221 571.280151,505.184937 
z"/>
<path fill="#DEDED7" opacity="1.000000" stroke="none" 
	d="
M675.903870,199.131729 
	C682.256531,234.826172 676.184753,267.763062 657.043274,298.116180 
	C640.197693,324.828766 616.722168,343.625488 587.024475,354.030121 
	C553.316101,365.839874 519.703247,364.448914 486.744965,350.568207 
	C470.451569,343.706024 455.994751,333.888519 443.720734,321.230530 
	C420.295197,297.072052 406.711212,268.201904 404.580414,234.448044 
	C401.794342,190.314499 417.090302,152.916397 449.339478,123.134575 
	C471.394958,102.766510 497.981201,91.382690 528.275391,88.402946 
	C589.362915,82.394363 646.567017,118.353348 668.626587,174.350220 
	C671.718262,182.198196 673.461975,190.577179 675.903870,199.131729 
M470.922699,305.619202 
	C471.593170,306.042175 472.263611,306.465179 473.266327,307.333527 
	C474.699493,308.379761 476.132660,309.426025 477.751678,311.130096 
	C481.821625,313.475433 485.891602,315.820801 490.105621,318.826996 
	C496.558411,324.003357 516.401794,329.803284 520.762756,327.529663 
	C519.717407,326.798157 518.883667,325.785828 517.884766,325.581787 
	C507.200287,323.399139 497.698608,318.960724 489.984375,311.120605 
	C484.537323,305.584686 478.220886,300.768127 475.397186,293.042511 
	C474.630707,290.945435 473.000702,289.166290 471.783264,287.231018 
	C470.764801,285.612030 469.770081,283.978119 469.611725,282.133545 
	C475.602356,282.095612 481.699066,281.324768 487.561432,282.173157 
	C499.572388,283.911377 508.502747,279.957733 515.773682,270.362671 
	C519.891907,264.928101 525.211548,260.403931 529.990051,255.469742 
	C529.813843,255.048553 529.637573,254.627350 529.461365,254.206161 
	C506.075287,254.206161 482.689240,254.206161 458.415558,254.016312 
	C457.810913,254.038589 457.206238,254.060867 456.634308,253.487717 
	C456.580566,253.097748 456.526825,252.707779 456.784485,251.386337 
	C456.829620,249.245041 456.821503,247.101089 456.928467,244.962891 
	C457.626190,231.015106 458.348907,217.068573 459.506104,203.063614 
	C459.869324,203.007233 460.038208,202.795685 460.947968,202.411255 
	C472.730499,202.366959 484.513794,202.377243 496.294769,202.216904 
	C497.976898,202.194016 500.175262,201.868698 501.240601,200.795639 
	C509.957672,192.015366 518.462585,183.024475 527.708435,174.143021 
	C527.998840,173.542099 528.289246,172.941177 528.579712,172.340256 
	C528.050720,172.236633 527.521667,172.133011 526.067749,171.872147 
	C506.753937,171.775513 487.440125,171.678879 468.092651,170.921646 
	C467.978241,170.271637 467.863861,169.621613 468.428375,168.709183 
	C469.932190,165.793427 471.435974,162.877670 473.278748,159.377090 
	C480.136871,152.077301 486.490112,144.198288 496.550537,139.804276 
	C500.198730,137.640625 503.909943,135.574493 507.470001,133.274429 
	C509.407928,132.022415 511.089264,130.373215 512.943176,128.903793 
	C512.943176,128.903793 512.913696,128.855179 513.627136,128.922775 
	C514.371948,128.241714 515.116760,127.560654 516.385925,126.390793 
	C518.463623,125.460617 520.541260,124.530441 522.618958,123.600258 
	C522.488525,123.179634 522.358154,122.759003 522.227722,122.338371 
	C516.920593,122.054581 511.724945,122.475052 506.164398,125.676720 
	C501.968140,127.595154 497.771912,129.513596 493.164917,131.510529 
	C493.164917,131.510529 492.852631,131.788589 492.212372,131.682510 
	C491.339417,132.263123 490.466431,132.843750 489.042358,133.587601 
	C488.724182,133.798325 488.406006,134.009033 487.416595,134.157318 
	C486.185059,135.037094 484.953491,135.916855 483.348022,136.913467 
	C483.348022,136.913467 483.082062,137.201096 482.454895,137.175369 
	C481.888184,137.725494 481.321442,138.275620 480.375885,138.946213 
	C480.375885,138.946213 480.085083,139.217239 479.460602,139.122986 
	C478.908264,139.702942 478.355927,140.282898 477.243042,141.078384 
	C476.507935,141.741943 475.772858,142.405502 474.409454,143.086731 
	C473.896942,143.695145 473.384399,144.303543 472.261719,145.179062 
	C467.125092,150.575089 461.384705,155.519928 456.956757,161.445511 
	C438.163269,186.595337 431.623352,214.919495 437.240448,245.743820 
	C441.342255,268.252899 451.658417,287.647522 468.857483,303.799927 
	C469.539124,304.236786 470.220734,304.673645 470.981995,304.994690 
	C470.981995,304.994690 470.888489,305.100983 470.922699,305.619202 
M607.267517,258.231567 
	C602.679688,253.619354 598.091919,249.007126 593.504089,244.394897 
	C597.773010,243.224548 601.400818,242.963135 604.977173,243.281113 
	C611.616150,243.871445 616.386292,242.120270 621.361328,236.793457 
	C628.407043,229.249649 630.942078,221.639618 631.505310,211.319931 
	C632.341187,196.003555 629.193726,183.674881 616.397644,174.602936 
	C616.262756,174.507324 616.168579,174.337845 616.024048,174.274872 
	C614.154785,173.460724 612.285645,171.976395 610.405457,171.960358 
	C590.419922,171.789886 570.431335,171.763580 550.446716,171.980911 
	C548.283630,172.004425 545.678345,173.329163 544.067200,174.873489 
	C537.108521,181.543396 530.430725,188.507217 523.680725,195.393417 
	C522.020569,197.087067 520.473083,198.891251 517.816528,201.803802 
	C546.723877,201.803802 574.044128,201.803802 601.416260,201.803802 
	C601.416260,206.213608 601.416260,209.916840 601.416260,213.930908 
	C590.507568,213.930908 580.026672,213.934052 569.545776,213.930328 
	C534.069092,213.917709 498.592072,213.961273 463.115997,213.803986 
	C459.287109,213.787003 458.280823,214.913071 458.455933,218.627533 
	C458.753479,224.940598 458.751587,231.295807 458.374359,237.603333 
	C458.096069,242.256683 459.705536,243.407791 464.286072,243.372238 
	C493.765015,243.143280 523.246826,243.172791 552.726318,243.346695 
	C555.091492,243.360641 557.972656,244.526764 559.719177,246.131409 
	C569.507446,255.124802 579.414978,264.048584 588.483398,273.743042 
	C594.120667,279.769592 600.127319,282.095917 608.162170,281.399933 
	C614.979126,280.809479 621.887817,281.278137 630.290833,281.278137 
	C621.986572,272.977386 614.865417,265.859314 607.267517,258.231567 
M546.447144,256.864716 
	C538.837891,264.656982 531.228638,272.449249 523.023621,280.851624 
	C539.817383,280.851624 555.557190,280.851624 572.566101,280.851624 
	C563.922729,272.016632 556.156860,264.066742 548.344238,256.163177 
	C548.156128,255.972855 547.445984,256.298462 546.447144,256.864716 
z"/>
<path fill="#BB5E27" opacity="1.000000" stroke="none" 
	d="
M298.061584,295.396179 
	C321.656372,295.035980 345.375153,295.037170 369.565125,295.064392 
	C370.036285,295.090454 370.173431,295.379333 370.136047,295.534180 
	C370.068909,296.215271 370.039154,296.741516 369.979980,297.662659 
	C368.524567,297.702393 367.104340,297.064575 365.671600,297.035004 
	C346.636963,296.641937 327.600494,296.337555 308.564667,296.002075 
	C305.104584,295.941101 301.645233,295.840057 298.061584,295.396179 
z"/>
<path fill="#BB5E27" opacity="1.000000" stroke="none" 
	d="
M153.250519,295.279297 
	C168.337189,295.009033 183.718948,294.995453 199.574066,295.004822 
	C196.534500,295.638336 193.013382,296.809052 189.510162,296.757690 
	C177.518585,296.581879 165.533279,295.977112 153.250519,295.279297 
z"/>
<path fill="#BB5E27" opacity="1.000000" stroke="none" 
	d="
M259.074341,295.409973 
	C270.992126,295.016876 283.046417,294.999390 295.574036,295.004822 
	C291.052063,295.679901 286.073273,296.621582 281.057068,296.907959 
	C275.298553,297.236755 269.504944,297.065979 263.730835,296.930267 
	C262.216034,296.894684 260.717072,296.185455 259.074341,295.409973 
z"/>
<path fill="#BB5E27" opacity="1.000000" stroke="none" 
	d="
M202.061615,295.396179 
	C219.657181,295.014404 237.376740,294.993988 255.569275,294.994324 
	C254.306519,295.345062 252.572540,295.949982 250.834763,295.961060 
	C238.075684,296.042511 225.315796,296.022369 212.556274,295.993896 
	C209.099213,295.986176 205.642471,295.840088 202.061615,295.396179 
z"/>
<path fill="#BB5E27" opacity="1.000000" stroke="none" 
	d="
M100.949585,301.673645 
	C99.987701,300.263458 99.052643,298.419800 98.117584,296.576111 
	C99.667435,296.038544 101.185234,295.204315 102.774605,295.032654 
	C105.188934,294.771851 107.652924,294.970947 110.563828,294.990845 
	C109.118141,295.671814 107.207085,296.872223 105.290169,296.881653 
	C102.052460,296.897583 100.594208,297.974457 100.949585,301.673645 
z"/>
<path fill="#BB5E27" opacity="1.000000" stroke="none" 
	d="
M122.275345,295.280792 
	C129.339233,295.005554 136.719757,294.992004 144.573639,295.000793 
	C137.650772,299.036041 130.083893,295.668488 122.275345,295.280792 
z"/>
<path fill="#BB5E27" opacity="1.000000" stroke="none" 
	d="
M109.942429,313.705627 
	C108.631577,313.021057 107.288231,311.978302 105.661880,310.779480 
	C104.928352,309.641815 104.477829,308.660126 103.974472,307.355713 
	C105.917740,309.137787 107.913849,311.242615 109.942429,313.705627 
z"/>
<path fill="#BB5E27" opacity="1.000000" stroke="none" 
	d="
M370.043213,299.260132 
	C370.338745,299.438934 370.654022,299.917816 371.006897,300.689392 
	C370.717316,300.508148 370.390106,300.034149 370.043213,299.260132 
z"/>
<path fill="#BB5E27" opacity="1.000000" stroke="none" 
	d="
M136.897278,337.676941 
	C136.717392,337.784973 136.461502,337.622314 136.143982,337.174469 
	C136.317276,337.085663 136.563599,337.257965 136.897278,337.676941 
z"/>
<path fill="#BB5E27" opacity="1.000000" stroke="none" 
	d="
M112.893875,316.813629 
	C112.695137,316.903839 112.440842,316.705688 112.129135,316.221863 
	C112.334099,316.122650 112.589630,316.319031 112.893875,316.813629 
z"/>
<path fill="#BB5E27" opacity="1.000000" stroke="none" 
	d="
M111.875031,315.767212 
	C111.677460,315.873871 111.413918,315.688995 111.075119,315.219543 
	C111.273537,315.105560 111.543274,315.285767 111.875031,315.767212 
z"/>
<path fill="#BB5E27" opacity="1.000000" stroke="none" 
	d="
M102.894562,305.802216 
	C102.698151,305.895172 102.440582,305.700897 102.122818,305.219482 
	C102.322655,305.122559 102.579582,305.316803 102.894562,305.802216 
z"/>
<path fill="#BB5E27" opacity="1.000000" stroke="none" 
	d="
M101.883759,304.777222 
	C101.676979,304.875702 101.422241,304.677155 101.133789,304.169983 
	C101.329796,304.092194 101.575035,304.298492 101.883759,304.777222 
z"/>
<path fill="#D15311" opacity="1.000000" stroke="none" 
	d="
M718.436035,298.341797 
	C720.983521,297.334503 723.301086,296.051880 725.620239,296.049072 
	C808.576904,295.948669 891.533691,295.959717 974.490417,296.029022 
	C976.158630,296.030426 977.825989,296.906342 979.493774,297.374268 
	C978.919189,298.862030 978.724915,300.710907 977.709595,301.780243 
	C969.727905,310.186646 961.736938,318.595856 953.430664,326.677094 
	C949.794495,330.214722 945.523071,333.142181 941.347412,336.071991 
	C935.460327,340.202667 929.066223,343.043427 921.639160,343.040802 
	C847.844238,343.014832 774.049377,343.032959 700.254517,342.972351 
	C698.384583,342.970825 696.515320,342.212677 694.645752,341.807434 
	C695.322083,339.848145 695.560669,337.560333 696.744873,335.982178 
	C705.429749,324.408691 712.647339,312.020142 718.436035,298.341797 
z"/>
<path fill="#C3C4BE" opacity="1.000000" stroke="none" 
	d="
M587.285706,518.917603 
	C583.561768,519.266968 581.535278,518.465088 582.969482,514.188843 
	C586.885254,514.188843 590.923950,514.188843 595.228210,514.188843 
	C596.711365,517.582764 595.780823,519.275513 591.700562,518.931274 
	C590.386169,518.820312 589.054443,518.915833 587.285706,518.917603 
z"/>
<path fill="#C3C4BE" opacity="1.000000" stroke="none" 
	d="
M744.517944,514.259277 
	C745.684204,517.689392 744.789124,519.278137 741.262207,518.960510 
	C738.971069,518.754333 736.598511,519.186646 734.359863,518.786926 
	C733.376648,518.611450 732.250732,517.182922 731.953247,516.111389 
	C731.811035,515.598877 733.406128,513.980103 734.287659,513.919006 
	C737.565002,513.691467 740.872742,513.902771 744.517944,514.259277 
z"/>
<path fill="#C3C4BE" opacity="1.000000" stroke="none" 
	d="
M621.703125,515.961792 
	C625.413452,515.005493 629.101990,514.518860 632.790588,514.032227 
	C632.955017,515.479797 633.767639,517.354858 633.152161,518.287964 
	C631.767944,520.386536 623.028931,518.780884 621.703125,515.961792 
z"/>
<path fill="#131312" opacity="1.000000" stroke="none" 
	d="
M607.505920,258.486389 
	C614.865417,265.859314 621.986572,272.977386 630.290833,281.278137 
	C621.887817,281.278137 614.979126,280.809479 608.162170,281.399933 
	C600.127319,282.095917 594.120667,279.769592 588.483398,273.743042 
	C579.414978,264.048584 569.507446,255.124802 559.719177,246.131409 
	C557.972656,244.526764 555.091492,243.360641 552.726318,243.346695 
	C523.246826,243.172791 493.765015,243.143280 464.286072,243.372238 
	C459.705536,243.407791 458.096069,242.256683 458.374359,237.603333 
	C458.751587,231.295807 458.753479,224.940598 458.455933,218.627533 
	C458.280823,214.913071 459.287109,213.787003 463.115997,213.803986 
	C498.592072,213.961273 534.069092,213.917709 569.545776,213.930328 
	C580.026672,213.934052 590.507568,213.930908 601.416260,213.930908 
	C601.416260,209.916840 601.416260,206.213608 601.416260,201.803802 
	C574.044128,201.803802 546.723877,201.803802 517.816528,201.803802 
	C520.473083,198.891251 522.020569,197.087067 523.680725,195.393417 
	C530.430725,188.507217 537.108521,181.543396 544.067200,174.873489 
	C545.678345,173.329163 548.283630,172.004425 550.446716,171.980911 
	C570.431335,171.763580 590.419922,171.789886 610.405457,171.960358 
	C612.285645,171.976395 614.154785,173.460724 616.024048,174.274872 
	C616.168579,174.337845 616.262756,174.507324 616.397644,174.602936 
	C629.193726,183.674881 632.341187,196.003555 631.505310,211.319931 
	C630.942078,221.639618 628.407043,229.249649 621.361328,236.793457 
	C616.386292,242.120270 611.616150,243.871445 604.977173,243.281113 
	C601.400818,242.963135 597.773010,243.224548 593.504089,244.394897 
	C598.091919,249.007126 602.679688,253.619354 607.505920,258.486389 
z"/>
<path fill="#1B1B19" opacity="1.000000" stroke="none" 
	d="
M475.037750,143.069061 
	C475.772858,142.405502 476.507935,141.741943 477.844025,141.009872 
	C478.991699,140.366653 479.538391,139.791946 480.085083,139.217239 
	C480.085083,139.217239 480.375885,138.946213 480.893951,138.920319 
	C481.968689,138.330002 482.525391,137.765549 483.082062,137.201096 
	C483.082062,137.201096 483.348022,136.913467 483.900696,136.903076 
	C485.642578,136.586945 486.831818,136.281219 488.020142,136.332214 
	C487.974121,137.398041 487.928955,138.107162 487.736359,138.935898 
	C487.588898,139.055527 487.253235,139.233200 486.895996,139.186493 
	C485.004852,140.329346 483.265015,141.329971 481.971588,142.740082 
	C475.232391,150.087494 468.606781,157.539078 461.608704,165.033997 
	C460.155914,166.795258 458.946014,168.430695 458.028778,170.216431 
	C457.912567,170.442657 459.329987,171.456635 459.995850,172.383759 
	C459.643555,173.107819 459.332336,173.553757 458.730377,173.903137 
	C454.847229,175.691483 453.520111,179.908524 454.919373,185.299423 
	C454.839020,186.057175 454.765320,186.486877 454.358032,187.044495 
	C448.880127,200.542404 449.434967,214.213531 451.917816,228.401215 
	C451.944702,230.216660 451.921753,231.614761 451.639526,233.329010 
	C451.846558,237.787231 452.312866,241.929321 452.850403,246.389954 
	C452.913055,247.142471 452.904449,247.576462 452.639343,248.318329 
	C452.280640,252.605347 450.296783,256.950012 454.697266,260.457825 
	C454.848969,261.895233 454.909760,262.946899 454.717041,264.266632 
	C454.670868,267.759460 454.442535,271.094818 455.224091,274.173798 
	C455.843353,276.613434 457.700897,278.738770 459.063171,281.080933 
	C459.117767,281.158234 459.211853,281.322388 459.166504,281.700562 
	C460.219513,284.818390 460.954773,287.785461 462.496643,290.247375 
	C465.181000,294.533508 468.362854,298.508057 471.196167,302.769287 
	C471.056152,302.925323 470.769592,303.231415 470.439178,303.170471 
	C469.663635,303.125824 469.218536,303.142090 468.773407,303.158356 
	C451.658417,287.647522 441.342255,268.252899 437.240448,245.743820 
	C431.623352,214.919495 438.163269,186.595337 456.956757,161.445511 
	C461.384705,155.519928 467.125092,150.575089 472.893860,145.041138 
	C474.029907,144.291824 474.533813,143.680450 475.037750,143.069061 
z"/>
<path fill="#11110F" opacity="1.000000" stroke="none" 
	d="
M459.021088,173.999680 
	C459.332336,173.553757 459.643555,173.107819 460.412415,172.253067 
	C461.131470,171.716187 461.392883,171.588150 462.056519,171.501648 
	C464.347961,171.556213 466.237122,171.569244 468.126312,171.582260 
	C487.440125,171.678879 506.753937,171.775513 526.515259,172.295563 
	C526.985901,173.178497 527.008972,173.638046 527.031982,174.097565 
	C518.462585,183.024475 509.957672,192.015366 501.240601,200.795639 
	C500.175262,201.868698 497.976898,202.194016 496.294769,202.216904 
	C484.513794,202.377243 472.730499,202.366959 460.396576,202.123856 
	C459.400696,201.414032 458.956207,200.991608 458.531586,200.152527 
	C458.507843,194.229401 458.464233,188.722916 458.571350,182.815201 
	C458.688049,180.732147 458.654022,179.050323 458.721924,176.955536 
	C458.889618,175.694931 458.955353,174.847305 459.021088,173.999680 
z"/>
<path fill="#11110F" opacity="1.000000" stroke="none" 
	d="
M459.303162,254.206161 
	C482.689240,254.206161 506.075287,254.206161 529.461365,254.206161 
	C529.637573,254.627350 529.813843,255.048553 529.990051,255.469742 
	C525.211548,260.403931 519.891907,264.928101 515.773682,270.362671 
	C508.502747,279.957733 499.572388,283.911377 487.561432,282.173157 
	C481.699066,281.324768 475.602356,282.095612 468.909424,282.085785 
	C467.138947,282.034882 466.070770,282.031769 464.726624,281.778564 
	C462.704376,281.459839 460.958130,281.391113 459.211853,281.322388 
	C459.211853,281.322388 459.117767,281.158234 459.043640,280.611328 
	C458.799774,277.553619 458.630005,275.042847 458.503662,272.169312 
	C458.417969,269.594269 458.288788,267.382050 458.273621,264.765137 
	C458.692749,260.975708 458.997955,257.590942 459.303162,254.206161 
z"/>
<path fill="#1A1916" opacity="1.000000" stroke="none" 
	d="
M546.713257,256.624054 
	C547.445984,256.298462 548.156128,255.972855 548.344238,256.163177 
	C556.156860,264.066742 563.922729,272.016632 572.566101,280.851624 
	C555.557190,280.851624 539.817383,280.851624 523.023621,280.851624 
	C531.228638,272.449249 538.837891,264.656982 546.713257,256.624054 
z"/>
<path fill="#C3C4BE" opacity="1.000000" stroke="none" 
	d="
M465.002563,282.028625 
	C466.070770,282.031769 467.138947,282.034882 468.485992,282.194397 
	C469.770081,283.978119 470.764801,285.612030 471.783264,287.231018 
	C473.000702,289.166290 474.630707,290.945435 475.397186,293.042511 
	C478.220886,300.768127 484.537323,305.584686 489.984375,311.120605 
	C497.698608,318.960724 507.200287,323.399139 517.884766,325.581787 
	C518.883667,325.785828 519.717407,326.798157 520.762756,327.529663 
	C516.401794,329.803284 496.558411,324.003357 490.406677,318.396088 
	C491.479309,317.959869 492.250916,317.954559 493.062195,318.032013 
	C493.101898,318.114807 493.259094,318.167236 493.259094,318.167236 
	C493.259094,318.167236 492.964386,318.006561 492.808624,317.711487 
	C489.261200,314.528992 485.575043,311.919037 482.538818,308.696747 
	C476.106598,301.870270 469.946259,294.782257 463.822937,287.673553 
	C462.037994,285.601410 461.691223,283.297852 465.002563,282.028625 
z"/>
<path fill="#A8A9A5" opacity="1.000000" stroke="none" 
	d="
M468.109497,171.251953 
	C466.237122,171.569244 464.347961,171.556213 462.080231,171.412460 
	C461.701691,171.281738 461.632721,171.106003 461.798157,170.828217 
	C465.756958,165.407761 469.372772,160.121262 473.391296,155.160995 
	C477.819092,149.695480 482.616699,144.529602 487.253235,139.233200 
	C487.253235,139.233200 487.588898,139.055527 488.095825,138.980392 
	C494.710999,135.475937 500.814514,132.038055 506.930420,128.622345 
	C508.855194,127.547356 509.526367,126.527908 506.937103,125.471474 
	C511.724945,122.475052 516.920593,122.054581 522.227722,122.338371 
	C522.358154,122.759003 522.488525,123.179634 522.618958,123.600258 
	C520.541260,124.530441 518.463623,125.460617 515.793152,126.663132 
	C514.438171,127.575378 513.675903,128.215286 512.913696,128.855179 
	C512.913696,128.855179 512.943176,128.903793 512.536926,128.911331 
	C506.692719,132.522705 501.254791,136.126541 495.816833,139.730377 
	C486.490112,144.198288 480.136871,152.077301 472.814697,159.827393 
	C470.164856,162.830566 466.026093,164.349838 467.749451,168.971603 
	C467.863861,169.621613 467.978241,170.271637 468.109497,171.251953 
z"/>
<path fill="#A8A9A5" opacity="1.000000" stroke="none" 
	d="
M458.420593,183.216431 
	C458.464233,188.722916 458.507843,194.229401 458.423340,200.483429 
	C458.551270,201.861191 458.807343,202.491409 459.063446,203.121628 
	C458.348907,217.068573 457.626190,231.015106 456.928467,244.962891 
	C456.821503,247.101089 456.829620,249.245041 456.324524,251.797546 
	C455.449249,252.161499 455.033966,252.114227 454.629150,251.697830 
	C454.541718,250.357620 454.443726,249.386520 454.534180,248.013123 
	C454.342010,246.079071 453.961395,244.547333 453.562683,242.613586 
	C453.453278,239.118103 453.361969,236.024628 453.491547,232.688187 
	C453.579834,230.991089 453.447205,229.536972 453.285645,227.724030 
	C453.307465,226.649445 453.358246,225.933701 453.739807,225.025543 
	C454.936890,211.472015 455.803192,198.110901 456.700256,184.434265 
	C456.772552,183.697678 456.814087,183.276627 457.117188,182.916443 
	C457.726013,183.057007 458.073303,183.136719 458.420593,183.216431 
z"/>
<path fill="#565753" opacity="1.000000" stroke="none" 
	d="
M464.726624,281.778564 
	C461.691223,283.297852 462.037994,285.601410 463.822937,287.673553 
	C469.946259,294.782257 476.106598,301.870270 482.538818,308.696747 
	C485.575043,311.919037 489.261200,314.528992 492.826538,317.700745 
	C493.000183,317.985107 493.022491,317.949219 493.022491,317.949219 
	C492.250916,317.954559 491.479309,317.959869 490.334656,318.065674 
	C485.891602,315.820801 481.821625,313.475433 477.945679,310.658264 
	C478.215729,309.489166 478.617126,308.414429 478.315948,308.154877 
	C476.067505,306.216980 473.680054,304.440369 471.336151,302.613220 
	C468.362854,298.508057 465.181000,294.533508 462.496643,290.247375 
	C460.954773,287.785461 460.219513,284.818390 459.166504,281.700562 
	C460.958130,281.391113 462.704376,281.459839 464.726624,281.778564 
z"/>
<path fill="#505250" opacity="1.000000" stroke="none" 
	d="
M506.550751,125.574097 
	C509.526367,126.527908 508.855194,127.547356 506.930420,128.622345 
	C500.814514,132.038055 494.710999,135.475937 488.243286,138.860764 
	C487.928955,138.107162 487.974121,137.398041 488.009155,136.344299 
	C487.999023,135.999664 487.975433,136.021774 488.331390,136.039612 
	C488.989380,135.179749 489.291412,134.302048 489.593445,133.424347 
	C490.466431,132.843750 491.339417,132.263123 492.619751,131.997314 
	C493.280914,132.618484 493.534698,132.924835 493.788483,133.231186 
	C493.717529,132.631470 493.646606,132.031754 493.575653,131.432037 
	C497.771912,129.513596 501.968140,127.595154 506.550751,125.574097 
z"/>
<path fill="#C3C4BE" opacity="1.000000" stroke="none" 
	d="
M496.183685,139.767334 
	C501.254791,136.126541 506.692719,132.522705 512.508484,128.911011 
	C511.089264,130.373215 509.407928,132.022415 507.470001,133.274429 
	C503.909943,135.574493 500.198730,137.640625 496.183685,139.767334 
z"/>
<path fill="#A8A9A5" opacity="1.000000" stroke="none" 
	d="
M458.859375,254.111237 
	C458.997955,257.590942 458.692749,260.975708 458.002197,264.498535 
	C456.884277,262.691803 456.151703,260.747070 455.345398,258.506592 
	C455.202484,257.810547 455.133331,257.410217 455.282104,256.824066 
	C455.867249,255.786545 456.234436,254.934845 456.601624,254.083130 
	C457.206238,254.060867 457.810913,254.038589 458.859375,254.111237 
z"/>
<path fill="#C3C4BE" opacity="1.000000" stroke="none" 
	d="
M468.088928,168.840393 
	C466.026093,164.349838 470.164856,162.830566 472.645203,160.119812 
	C471.435974,162.877670 469.932190,165.793427 468.088928,168.840393 
z"/>
<path fill="#1B1B19" opacity="1.000000" stroke="none" 
	d="
M471.196167,302.769287 
	C473.680054,304.440369 476.067505,306.216980 478.315948,308.154877 
	C478.617126,308.414429 478.215729,309.489166 477.852753,310.329346 
	C476.132660,309.426025 474.699493,308.379761 473.027893,306.734558 
	C472.155792,305.790680 471.522156,305.445831 470.888489,305.100983 
	C470.888489,305.100983 470.981995,304.994690 470.967346,304.736755 
	C470.891632,304.062988 470.830627,303.647217 470.769592,303.231415 
	C470.769592,303.231415 471.056152,302.925323 471.196167,302.769287 
z"/>
<path fill="#727573" opacity="1.000000" stroke="none" 
	d="
M456.617981,253.785431 
	C456.234436,254.934845 455.867249,255.786545 455.010925,256.611572 
	C454.554077,255.078949 454.586365,253.572952 454.618652,252.066956 
	C455.033966,252.114227 455.449249,252.161499 456.168823,252.263275 
	C456.526825,252.707779 456.580566,253.097748 456.617981,253.785431 
z"/>
<path fill="#505250" opacity="1.000000" stroke="none" 
	d="
M488.010040,135.987579 
	C486.831818,136.281219 485.642578,136.586945 484.087646,136.844666 
	C484.953491,135.916855 486.185059,135.037094 487.777191,134.490280 
	C488.083679,135.222748 488.029541,135.622269 487.975433,136.021774 
	C487.975433,136.021774 487.999023,135.999664 488.010040,135.987579 
z"/>
<path fill="#C3C4BE" opacity="1.000000" stroke="none" 
	d="
M513.270386,128.888977 
	C513.675903,128.215286 514.438171,127.575378 515.530945,126.907532 
	C515.116760,127.560654 514.371948,128.241714 513.270386,128.888977 
z"/>
<path fill="#1B1B19" opacity="1.000000" stroke="none" 
	d="
M488.331390,136.039612 
	C488.029541,135.622269 488.083679,135.222748 488.112793,134.521500 
	C488.406006,134.009033 488.724182,133.798325 489.317902,133.505981 
	C489.291412,134.302048 488.989380,135.179749 488.331390,136.039612 
z"/>
<path fill="#727573" opacity="1.000000" stroke="none" 
	d="
M459.284790,203.092621 
	C458.807343,202.491409 458.551270,201.861191 458.403442,200.900070 
	C458.956207,200.991608 459.400696,201.414032 459.928955,202.132721 
	C460.038208,202.795685 459.869324,203.007233 459.284790,203.092621 
z"/>
<path fill="#333533" opacity="1.000000" stroke="none" 
	d="
M527.370239,174.120300 
	C527.008972,173.638046 526.985901,173.178497 526.977783,172.374176 
	C527.521667,172.133011 528.050720,172.236633 528.579712,172.340240 
	C528.289246,172.941177 527.998840,173.542099 527.370239,174.120300 
z"/>
<path fill="#505250" opacity="1.000000" stroke="none" 
	d="
M470.439209,303.170471 
	C470.830627,303.647217 470.891632,304.062988 470.927490,304.794678 
	C470.220734,304.673645 469.539124,304.236786 468.815430,303.479126 
	C469.218536,303.142090 469.663635,303.125824 470.439209,303.170471 
z"/>
<path fill="#505250" opacity="1.000000" stroke="none" 
	d="
M482.768494,137.188232 
	C482.525391,137.765549 481.968689,138.330002 481.083374,138.860107 
	C481.321442,138.275620 481.888184,137.725494 482.768494,137.188232 
z"/>
<path fill="#505250" opacity="1.000000" stroke="none" 
	d="
M479.772827,139.170105 
	C479.538391,139.791946 478.991699,140.366653 478.124329,140.902100 
	C478.355927,140.282898 478.908264,139.702942 479.772827,139.170105 
z"/>
<path fill="#505250" opacity="1.000000" stroke="none" 
	d="
M470.905579,305.360107 
	C471.522156,305.445831 472.155792,305.790680 472.861755,306.511841 
	C472.263611,306.465179 471.593170,306.042175 470.905579,305.360107 
z"/>
<path fill="#505250" opacity="1.000000" stroke="none" 
	d="
M474.723602,143.077896 
	C474.533813,143.680450 474.029907,144.291824 473.198914,144.907578 
	C473.384399,144.303543 473.896942,143.695145 474.723602,143.077896 
z"/>
<path fill="#1B1B19" opacity="1.000000" stroke="none" 
	d="
M493.370300,131.471283 
	C493.646606,132.031754 493.717529,132.631470 493.788483,133.231186 
	C493.534698,132.924835 493.280914,132.618484 492.939880,132.050354 
	C492.852631,131.788589 493.164917,131.510529 493.370300,131.471283 
z"/>
<path fill="#333533" opacity="1.000000" stroke="none" 
	d="
M453.409058,225.217941 
	C453.358246,225.933701 453.307465,226.649445 452.924133,227.689484 
	C452.350372,228.003799 452.109161,227.993851 451.867950,227.983902 
	C449.434967,214.213531 448.880127,200.542404 454.451233,187.481293 
	C454.736176,189.591629 454.526154,191.390732 454.463531,193.194931 
	C454.093018,203.868622 453.756805,214.543472 453.409058,225.217941 
z"/>
<path fill="#505250" opacity="1.000000" stroke="none" 
	d="
M486.895996,139.186493 
	C482.616699,144.529602 477.819092,149.695480 473.391296,155.160995 
	C469.372772,160.121262 465.756958,165.407761 461.471802,170.690186 
	C461.300507,168.871414 461.621063,166.912903 461.941620,164.954407 
	C468.606781,157.539078 475.232391,150.087494 481.971588,142.740082 
	C483.265015,141.329971 485.004852,140.329346 486.895996,139.186493 
z"/>
<path fill="#727573" opacity="1.000000" stroke="none" 
	d="
M453.739807,225.025543 
	C453.756805,214.543472 454.093018,203.868622 454.463531,193.194931 
	C454.526154,191.390732 454.736176,189.591629 454.784851,187.353378 
	C454.765320,186.486877 454.839020,186.057175 455.213074,185.284637 
	C455.898773,184.877792 456.284149,184.813797 456.669495,184.749786 
	C455.803192,198.110901 454.936890,211.472015 453.739807,225.025543 
z"/>
<path fill="#333533" opacity="1.000000" stroke="none" 
	d="
M458.460205,272.532074 
	C458.630005,275.042847 458.799774,277.553619 458.989075,280.534027 
	C457.700897,278.738770 455.843353,276.613434 455.224091,274.173798 
	C454.442535,271.094818 454.670868,267.759460 454.985535,264.517517 
	C456.491791,267.177582 457.476013,269.854828 458.460205,272.532074 
z"/>
<path fill="#333533" opacity="1.000000" stroke="none" 
	d="
M456.700256,184.434265 
	C456.284149,184.813797 455.898773,184.877792 455.219757,184.956573 
	C453.520111,179.908524 454.847229,175.691483 458.730377,173.903137 
	C458.955353,174.847305 458.889618,175.694931 458.399048,177.003662 
	C457.601379,179.261719 457.228485,181.058640 456.855621,182.855576 
	C456.814087,183.276627 456.772552,183.697678 456.700256,184.434265 
z"/>
<path fill="#333533" opacity="1.000000" stroke="none" 
	d="
M454.629150,251.697845 
	C454.586365,253.572952 454.554077,255.078949 454.792969,256.797424 
	C455.133331,257.410217 455.202484,257.810547 455.135864,258.820648 
	C454.868835,259.644287 454.737610,259.858185 454.606354,260.072113 
	C450.296783,256.950012 452.280640,252.605347 452.892273,248.346481 
	C453.716400,248.182983 454.031067,248.299210 454.345764,248.415436 
	C454.443726,249.386520 454.541718,250.357620 454.629150,251.697845 
z"/>
<path fill="#333533" opacity="1.000000" stroke="none" 
	d="
M453.270630,232.931152 
	C453.361969,236.024628 453.453278,239.118103 453.379700,242.873367 
	C453.069611,244.380585 452.924377,245.225998 452.779144,246.071426 
	C452.312866,241.929321 451.846558,237.787231 451.983276,233.317169 
	C452.814362,232.969864 453.042511,232.950516 453.270630,232.931152 
z"/>
<path fill="#727573" opacity="1.000000" stroke="none" 
	d="
M454.697266,260.457825 
	C454.737610,259.858185 454.868835,259.644287 455.209595,259.116394 
	C456.151703,260.747070 456.884277,262.691803 457.888245,264.903198 
	C458.288788,267.382050 458.417969,269.594269 458.503693,272.169312 
	C457.476013,269.854828 456.491791,267.177582 455.239044,264.249451 
	C454.909760,262.946899 454.848969,261.895233 454.697266,260.457825 
z"/>
<path fill="#333533" opacity="1.000000" stroke="none" 
	d="
M461.608704,165.033997 
	C461.621063,166.912903 461.300507,168.871414 461.306335,170.967957 
	C461.632721,171.106003 461.701691,171.281738 461.677979,171.370941 
	C461.392883,171.588150 461.131470,171.716187 460.453461,171.974945 
	C459.329987,171.456635 457.912567,170.442657 458.028778,170.216431 
	C458.946014,168.430695 460.155914,166.795258 461.608704,165.033997 
z"/>
<path fill="#727573" opacity="1.000000" stroke="none" 
	d="
M453.491547,232.688187 
	C453.042511,232.950516 452.814362,232.969864 452.242493,233.001038 
	C451.921753,231.614761 451.944702,230.216660 451.917816,228.401215 
	C452.109161,227.993851 452.350372,228.003799 452.953064,228.048294 
	C453.447205,229.536972 453.579834,230.991089 453.491547,232.688187 
z"/>
<path fill="#727573" opacity="1.000000" stroke="none" 
	d="
M452.850403,246.389954 
	C452.924377,245.225998 453.069611,244.380585 453.397797,243.275360 
	C453.961395,244.547333 454.342010,246.079071 454.534180,248.013123 
	C454.031067,248.299210 453.716400,248.182983 453.148743,248.038605 
	C452.904449,247.576462 452.913055,247.142471 452.850403,246.389954 
z"/>
<path fill="#727573" opacity="1.000000" stroke="none" 
	d="
M457.117188,182.916443 
	C457.228485,181.058640 457.601379,179.261719 458.297119,177.416641 
	C458.654022,179.050323 458.688049,180.732147 458.571350,182.815201 
	C458.073303,183.136719 457.726013,183.057007 457.117188,182.916443 
z"/>
<path fill="#565753" opacity="1.000000" stroke="none" 
	d="
M492.982300,317.995850 
	C492.964386,318.006561 493.259094,318.167236 493.259094,318.167236 
	C493.259094,318.167236 493.101898,318.114807 493.062195,318.032013 
	C493.022491,317.949219 493.000183,317.985107 492.982300,317.995850 
z"/>
</svg>