<svg width="13" height="11" viewBox="0 0 13 11" fill="none" xmlns="http://www.w3.org/2000/svg">
<path d="M5.5 0C5.29384 -2.93351e-09 5.08971 0.0387753 4.89924 0.114112C4.70878 0.189449 4.53572 0.299871 4.38994 0.439076C4.24417 0.57828 4.12853 0.743539 4.04964 0.925418C3.97075 1.1073 3.93014 1.30223 3.93014 1.4991C3.93014 1.69596 3.97075 1.8909 4.04964 2.07278C4.12853 2.25466 4.24417 2.41992 4.38994 2.55912C4.53572 2.69832 4.70878 2.80875 4.89924 2.88408C5.08971 2.95942 5.29384 2.9982 5.5 2.9982C5.91635 2.9982 6.31565 2.84026 6.61006 2.55912C6.90446 2.27799 7.06986 1.89668 7.06986 1.4991C7.06986 1.10151 6.90446 0.720211 6.61006 0.439076C6.31565 0.15794 5.91635 0 5.5 0ZM9.03571 0.748799C8.72314 0.748799 8.42336 0.867372 8.20234 1.07844C7.98131 1.2895 7.85714 1.57576 7.85714 1.87425C7.85714 2.17274 7.98131 2.459 8.20234 2.67006C8.42336 2.88112 8.72314 2.9997 9.03571 2.9997C9.34829 2.9997 9.64806 2.88112 9.86909 2.67006C10.0901 2.459 10.2143 2.17274 10.2143 1.87425C10.2143 1.57576 10.0901 1.2895 9.86909 1.07844C9.64806 0.867372 9.34829 0.748799 9.03571 0.748799ZM1.96429 0.748799C1.65171 0.748799 1.35194 0.867372 1.13091 1.07844C0.909885 1.2895 0.785714 1.57576 0.785714 1.87425C0.785714 2.17274 0.909885 2.459 1.13091 2.67006C1.35194 2.88112 1.65171 2.9997 1.96429 2.9997C2.27686 2.9997 2.57664 2.88112 2.79766 2.67006C3.01869 2.459 3.14286 2.17274 3.14286 1.87425C3.14286 1.57576 3.01869 1.2895 2.79766 1.07844C2.57664 0.867372 2.27686 0.748799 1.96429 0.748799ZM3.14286 4.49504C3.14431 4.29696 3.22773 4.10747 3.37492 3.96789C3.52212 3.82832 3.72114 3.74999 3.92857 3.75H7.07143C7.27981 3.75 7.47966 3.82905 7.62701 3.96975C7.77436 4.11046 7.85714 4.3013 7.85714 4.5003V6.75119C7.85709 6.98733 7.81838 7.222 7.74243 7.44672C7.56845 7.95595 7.21006 8.38928 6.73162 8.66888C6.25318 8.94849 5.68602 9.05606 5.13199 8.97228C4.57797 8.88851 4.07336 8.61887 3.70879 8.21178C3.34422 7.8047 3.14357 7.28684 3.14286 6.75119V4.49504ZM2.35714 4.5003C2.35714 4.22644 2.43336 3.97058 2.56771 3.75H0.785714C0.57733 3.75 0.37748 3.82905 0.23013 3.96975C0.0827805 4.11046 1.08753e-07 4.3013 1.08753e-07 4.5003V6.37604C-0.000106895 6.68315 0.078749 6.98557 0.229643 7.25677C0.380537 7.52797 0.598853 7.75964 0.865419 7.93144C1.13198 8.10324 1.43865 8.20991 1.75847 8.24209C2.0783 8.27427 2.40151 8.23097 2.69971 8.11599C2.47357 7.69325 2.35614 7.22515 2.35714 6.75044V4.5003ZM8.64286 4.5003V6.75119C8.64286 7.24264 8.5195 7.70632 8.30029 8.11599C8.59849 8.23097 8.9217 8.27427 9.24153 8.24209C9.56135 8.20991 9.86802 8.10324 10.1346 7.93144C10.4011 7.75964 10.6195 7.52797 10.7704 7.25677C10.9213 6.98557 11.0001 6.68315 11 6.37604V4.5003C11 4.3013 10.9172 4.11046 10.7699 3.96975C10.6225 3.82905 10.4227 3.75 10.2143 3.75H8.43229C8.56586 3.97058 8.64286 4.22644 8.64286 4.5003Z" fill="#D93100" fill-opacity="0.75"/>
</svg>
